<svg width="128" height="128" viewBox="0 0 128 128" fill="none" xmlns="http://www.w3.org/2000/svg">
<g clip-path="url(#clip0_34_4)">
<rect width="128" height="128" fill="black"/>
<path d="M31.816 109V107.72L34.76 106.568C36.2107 105.971 37.192 105.203 37.704 104.264C38.3013 103.24 38.6 101.875 38.6 100.168V33.352C38.6 31.6453 38.344 30.3227 37.832 29.384C37.4053 28.36 36.3813 27.5493 34.76 26.952L31.816 25.8V24.52H93.128L93.896 44.232H92.616L87.112 32.2C86.344 30.664 85.5333 29.4267 84.68 28.488C83.8267 27.5493 82.5467 27.08 80.84 27.08H57.8V64.072H71.496C73.2027 64.072 74.4827 63.6453 75.336 62.792C76.2747 61.8533 77.0853 60.616 77.768 59.08L80.328 53.96H81.608V77H80.328L77.768 71.624C77 70.088 76.1893 68.8933 75.336 68.04C74.4827 67.1013 73.2027 66.632 71.496 66.632H57.8V106.44H83.656C85.3627 106.44 86.6853 106.013 87.624 105.16C88.5627 104.221 89.3307 102.941 89.928 101.32L95.176 89.288H96.456L95.688 109H31.816Z" fill="white"/>
</g>
<defs>
<clipPath id="clip0_34_4">
<rect width="128" height="128" fill="white"/>
</clipPath>
</defs>
</svg>
