<svg width="220" height="63" viewBox="0 0 220 63" fill="none" xmlns="http://www.w3.org/2000/svg">
<path d="M0.704 33V32.68L1.44 32.392C1.80267 32.2427 2.048 32.0507 2.176 31.816C2.32533 31.56 2.4 31.2187 2.4 30.792V14.088C2.4 13.6613 2.336 13.3307 2.208 13.096C2.10133 12.84 1.84533 12.6373 1.44 12.488L0.704 12.2V11.88H16.032L16.224 16.808H15.904L14.528 13.8C14.336 13.416 14.1333 13.1067 13.92 12.872C13.7067 12.6373 13.3867 12.52 12.96 12.52H7.2V21.768H10.624C11.0507 21.768 11.3707 21.6613 11.584 21.448C11.8187 21.2133 12.0213 20.904 12.192 20.52L12.832 19.24H13.152V25H12.832L12.192 23.656C12 23.272 11.7973 22.9733 11.584 22.76C11.3707 22.5253 11.0507 22.408 10.624 22.408H7.2V32.36H13.664C14.0907 32.36 14.4213 32.2533 14.656 32.04C14.8907 31.8053 15.0827 31.4853 15.232 31.08L16.544 28.072H16.864L16.672 33H0.704ZM20.374 33V32.68L20.79 32.584C21.1953 32.456 21.5153 32.264 21.75 32.008C21.9847 31.752 22.102 31.4107 22.102 30.984C22.102 30.1947 22.102 29.416 22.102 28.648C22.1233 27.8587 22.134 27.0693 22.134 26.28V18.248H20.342V17.896L21.046 17.768C21.494 17.704 21.8033 17.5547 21.974 17.32C22.1447 17.064 22.2833 16.712 22.39 16.264C22.6033 15.432 22.9127 14.7067 23.318 14.088C23.7447 13.448 24.2247 12.8613 24.758 12.328C25.5687 11.56 26.422 11.0267 27.318 10.728C28.2353 10.408 29.1313 10.248 30.006 10.248C30.5607 10.248 31.094 10.3333 31.606 10.504C32.1393 10.6533 32.566 10.8987 32.886 11.24C33.2273 11.56 33.398 11.9867 33.398 12.52C33.398 13.096 33.2273 13.5547 32.886 13.896C32.566 14.216 32.086 14.376 31.446 14.376C30.934 14.376 30.4647 14.2373 30.038 13.96C29.6113 13.6827 29.1953 13.192 28.79 12.488L28.342 11.944C28.1073 11.624 27.862 11.4747 27.606 11.496C27.3713 11.5173 27.2113 11.6987 27.126 12.04C26.9767 12.808 26.8593 13.6933 26.774 14.696C26.71 15.6773 26.678 16.648 26.678 17.608H32.022C32.47 17.608 32.7793 17.4907 32.95 17.256C33.1207 17 33.2593 16.6693 33.366 16.264C33.5793 15.432 33.8887 14.7067 34.294 14.088C34.7207 13.448 35.2007 12.8613 35.734 12.328C36.5447 11.56 37.398 11.0267 38.294 10.728C39.2113 10.408 40.1073 10.248 40.982 10.248C41.558 10.248 42.102 10.3333 42.614 10.504C43.126 10.6533 43.5527 10.8987 43.894 11.24C44.2353 11.56 44.406 11.9867 44.406 12.52C44.406 13.096 44.2353 13.5547 43.894 13.896C43.5527 14.216 43.062 14.376 42.422 14.376C41.91 14.376 41.4407 14.2373 41.014 13.96C40.5873 13.6827 40.1713 13.192 39.766 12.488L39.318 11.944C39.0833 11.624 38.8487 11.4747 38.614 11.496C38.3793 11.5173 38.2087 11.6987 38.102 12.04C37.9527 12.808 37.8353 13.6933 37.75 14.696C37.686 15.6773 37.654 16.648 37.654 17.608H41.238V18.248H37.654V26.28C37.654 27.048 37.654 27.8267 37.654 28.616C37.654 29.384 37.654 30.152 37.654 30.92C37.6753 31.7307 38.1127 32.2533 38.966 32.488L39.766 32.68V33H31.35V32.68L31.766 32.584C32.1713 32.456 32.4913 32.264 32.726 32.008C32.9607 31.752 33.0887 31.4107 33.11 30.984C33.11 30.1947 33.11 29.416 33.11 28.648C33.11 27.8587 33.11 27.0693 33.11 26.28V18.248H26.678V26.28C26.678 27.048 26.678 27.8267 26.678 28.616C26.678 29.384 26.678 30.152 26.678 30.92C26.6993 31.7307 27.126 32.2533 27.958 32.488L28.758 32.68V33H20.374ZM51.8558 17.128C53.2424 17.128 54.4264 17.416 55.4078 17.992C56.3891 18.5467 57.1358 19.3147 57.6478 20.296C58.1811 21.256 58.4478 22.3547 58.4478 23.592C58.4478 23.8267 58.4371 24.072 58.4158 24.328C58.3944 24.5627 58.3518 24.776 58.2878 24.968H48.7518C48.7731 27.272 49.1784 28.936 49.9678 29.96C50.7784 30.9627 51.9731 31.464 53.5518 31.464C54.6184 31.464 55.4824 31.2933 56.1438 30.952C56.8051 30.6107 57.4238 30.1093 57.9998 29.448L58.3198 29.736C57.6584 30.9093 56.7731 31.8267 55.6638 32.488C54.5758 33.1493 53.2638 33.48 51.7278 33.48C50.2131 33.48 48.8691 33.16 47.6958 32.52C46.5224 31.8587 45.6051 30.92 44.9438 29.704C44.2824 28.488 43.9518 27.0373 43.9518 25.352C43.9518 23.6027 44.3358 22.12 45.1038 20.904C45.8718 19.6667 46.8531 18.728 48.0478 18.088C49.2638 17.448 50.5331 17.128 51.8558 17.128ZM51.7598 17.768C51.1411 17.768 50.6078 17.96 50.1598 18.344C49.7331 18.7067 49.3918 19.368 49.1358 20.328C48.9011 21.2667 48.7731 22.6 48.7518 24.328H54.2238C54.4371 22.0027 54.3518 20.328 53.9678 19.304C53.5838 18.28 52.8478 17.768 51.7598 17.768ZM61.9625 33V32.68L62.4425 32.552C62.8692 32.424 63.1572 32.232 63.3065 31.976C63.4772 31.72 63.5625 31.3893 63.5625 30.984V20.968C63.5625 20.4987 63.4772 20.1573 63.3065 19.944C63.1572 19.7093 62.8692 19.5493 62.4425 19.464L61.9625 19.336V19.016L67.4665 17.16L67.7865 17.48L68.0745 20.232V20.488C68.3732 19.8907 68.7572 19.3467 69.2265 18.856C69.7172 18.344 70.2505 17.928 70.8265 17.608C71.4238 17.288 72.0105 17.128 72.5865 17.128C73.3972 17.128 74.0158 17.352 74.4425 17.8C74.8692 18.248 75.0825 18.8133 75.0825 19.496C75.0825 20.2213 74.8692 20.7867 74.4425 21.192C74.0372 21.576 73.5465 21.768 72.9705 21.768C72.0745 21.768 71.2852 21.32 70.6025 20.424L70.5385 20.36C70.3252 20.0613 70.0798 19.9013 69.8025 19.88C69.5252 19.8373 69.2692 19.9653 69.0345 20.264C68.8212 20.456 68.6398 20.6907 68.4905 20.968C68.3625 21.224 68.2345 21.5227 68.1065 21.864V30.792C68.1065 31.6453 68.4798 32.1787 69.2265 32.392L70.2505 32.68V33H61.9625ZM85.6755 33.096L80.0115 19.496C79.7128 18.7707 79.2008 18.2907 78.4755 18.056L78.0275 17.928V17.608H86.3155V17.928L85.7395 18.056C84.9075 18.2693 84.6515 18.824 84.9715 19.72L88.3315 28.648L91.4675 19.784C91.6382 19.3573 91.6808 19.0053 91.5955 18.728C91.5102 18.4507 91.2542 18.248 90.8275 18.12L90.0275 17.928V17.608H94.6675V17.928L93.7395 18.152C93.3342 18.2587 93.0142 18.4187 92.7795 18.632C92.5662 18.8453 92.3848 19.1653 92.2355 19.592L87.5315 33.096H85.6755ZM104.584 17.128C105.971 17.128 107.155 17.416 108.136 17.992C109.118 18.5467 109.864 19.3147 110.376 20.296C110.91 21.256 111.176 22.3547 111.176 23.592C111.176 23.8267 111.166 24.072 111.144 24.328C111.123 24.5627 111.08 24.776 111.016 24.968H101.48C101.502 27.272 101.907 28.936 102.696 29.96C103.507 30.9627 104.702 31.464 106.28 31.464C107.347 31.464 108.211 31.2933 108.872 30.952C109.534 30.6107 110.152 30.1093 110.728 29.448L111.048 29.736C110.387 30.9093 109.502 31.8267 108.392 32.488C107.304 33.1493 105.992 33.48 104.456 33.48C102.942 33.48 101.598 33.16 100.424 32.52C99.2512 31.8587 98.3338 30.92 97.6725 29.704C97.0112 28.488 96.6805 27.0373 96.6805 25.352C96.6805 23.6027 97.0645 22.12 97.8325 20.904C98.6005 19.6667 99.5818 18.728 100.776 18.088C101.992 17.448 103.262 17.128 104.584 17.128ZM104.488 17.768C103.87 17.768 103.336 17.96 102.888 18.344C102.462 18.7067 102.12 19.368 101.864 20.328C101.63 21.2667 101.502 22.6 101.48 24.328H106.952C107.166 22.0027 107.08 20.328 106.696 19.304C106.312 18.28 105.576 17.768 104.488 17.768ZM120.227 33.48C119.182 33.48 118.243 33.352 117.411 33.096C116.579 32.8613 115.811 32.5627 115.107 32.2L115.139 28.392H115.459L116.547 30.312C117.017 31.1653 117.529 31.8053 118.083 32.232C118.659 32.6373 119.385 32.84 120.259 32.84C121.283 32.84 122.105 32.616 122.723 32.168C123.363 31.6987 123.683 31.08 123.683 30.312C123.683 29.608 123.459 29.032 123.011 28.584C122.563 28.136 121.731 27.7307 120.515 27.368L119.171 26.952C117.87 26.568 116.846 25.9707 116.099 25.16C115.353 24.3493 114.979 23.3573 114.979 22.184C114.979 20.776 115.534 19.5813 116.643 18.6C117.753 17.6187 119.342 17.128 121.411 17.128C122.243 17.128 123.022 17.224 123.747 17.416C124.494 17.5867 125.209 17.8533 125.891 18.216L125.699 21.672H125.379L124.259 19.688C123.854 18.984 123.449 18.4933 123.043 18.216C122.659 17.9173 122.073 17.768 121.283 17.768C120.558 17.768 119.875 17.9707 119.235 18.376C118.595 18.7813 118.275 19.3573 118.275 20.104C118.275 20.8293 118.542 21.4053 119.075 21.832C119.63 22.2587 120.441 22.6533 121.507 23.016L122.947 23.432C124.483 23.9013 125.582 24.552 126.243 25.384C126.905 26.1947 127.235 27.176 127.235 28.328C127.235 29.8853 126.617 31.1333 125.379 32.072C124.163 33.0107 122.446 33.48 120.227 33.48ZM138.485 33.48C137.034 33.48 135.711 33.1707 134.517 32.552C133.343 31.912 132.405 30.9947 131.701 29.8C131.018 28.584 130.677 27.1013 130.677 25.352C130.677 23.624 131.05 22.152 131.797 20.936C132.565 19.6987 133.578 18.76 134.837 18.12C136.117 17.4587 137.514 17.128 139.029 17.128C140.266 17.128 141.311 17.3307 142.165 17.736C143.018 18.1413 143.669 18.6747 144.117 19.336C144.565 19.976 144.789 20.648 144.789 21.352C144.789 21.9493 144.607 22.4187 144.245 22.76C143.882 23.08 143.413 23.24 142.837 23.24C142.218 23.24 141.717 23.016 141.333 22.568C140.949 22.12 140.725 21.5333 140.661 20.808C140.639 20.3387 140.65 19.944 140.693 19.624C140.735 19.2827 140.735 18.9413 140.693 18.6C140.607 18.2373 140.469 18.0027 140.277 17.896C140.106 17.768 139.861 17.704 139.541 17.704C138.239 17.704 137.226 18.2693 136.501 19.4C135.797 20.5307 135.445 22.3333 135.445 24.808C135.445 26.9627 135.839 28.616 136.629 29.768C137.439 30.8987 138.677 31.464 140.341 31.464C141.343 31.464 142.154 31.2827 142.773 30.92C143.391 30.5573 143.989 30.0133 144.565 29.288L144.885 29.544C144.351 30.8027 143.53 31.7733 142.421 32.456C141.311 33.1387 139.999 33.48 138.485 33.48ZM156.126 17.128C157.512 17.128 158.696 17.416 159.678 17.992C160.659 18.5467 161.406 19.3147 161.918 20.296C162.451 21.256 162.718 22.3547 162.718 23.592C162.718 23.8267 162.707 24.072 162.686 24.328C162.664 24.5627 162.622 24.776 162.558 24.968H153.022C153.043 27.272 153.448 28.936 154.238 29.96C155.048 30.9627 156.243 31.464 157.822 31.464C158.888 31.464 159.752 31.2933 160.414 30.952C161.075 30.6107 161.694 30.1093 162.27 29.448L162.59 29.736C161.928 30.9093 161.043 31.8267 159.934 32.488C158.846 33.1493 157.534 33.48 155.998 33.48C154.483 33.48 153.139 33.16 151.966 32.52C150.792 31.8587 149.875 30.92 149.214 29.704C148.552 28.488 148.222 27.0373 148.222 25.352C148.222 23.6027 148.606 22.12 149.374 20.904C150.142 19.6667 151.123 18.728 152.318 18.088C153.534 17.448 154.803 17.128 156.126 17.128ZM156.03 17.768C155.411 17.768 154.878 17.96 154.43 18.344C154.003 18.7067 153.662 19.368 153.406 20.328C153.171 21.2667 153.043 22.6 153.022 24.328H158.494C158.707 22.0027 158.622 20.328 158.238 19.304C157.854 18.28 157.118 17.768 156.03 17.768ZM166.232 33V32.68L166.68 32.552C167.427 32.3387 167.8 31.816 167.8 30.984V20.968C167.8 20.4987 167.726 20.1573 167.576 19.944C167.427 19.7093 167.139 19.5493 166.712 19.464L166.232 19.336V19.016L171.704 17.16L172.024 17.48L172.28 19.4C173.027 18.7387 173.87 18.1947 174.808 17.768C175.747 17.3413 176.675 17.128 177.592 17.128C179 17.128 180.078 17.512 180.824 18.28C181.592 19.048 181.976 20.2213 181.976 21.8V31.016C181.976 31.848 182.382 32.3707 183.192 32.584L183.48 32.68V33H175.928V32.68L176.344 32.552C177.091 32.3173 177.464 31.7947 177.464 30.984V20.776C177.464 19.4107 176.782 18.728 175.416 18.728C174.478 18.728 173.454 19.1973 172.344 20.136V31.016C172.344 31.848 172.718 32.3707 173.464 32.584L173.752 32.68V33H166.232ZM194.588 33.48C193.138 33.48 191.815 33.1707 190.62 32.552C189.447 31.912 188.508 30.9947 187.804 29.8C187.122 28.584 186.78 27.1013 186.78 25.352C186.78 23.624 187.154 22.152 187.9 20.936C188.668 19.6987 189.682 18.76 190.94 18.12C192.22 17.4587 193.618 17.128 195.132 17.128C196.37 17.128 197.415 17.3307 198.268 17.736C199.122 18.1413 199.772 18.6747 200.22 19.336C200.668 19.976 200.892 20.648 200.892 21.352C200.892 21.9493 200.711 22.4187 200.348 22.76C199.986 23.08 199.516 23.24 198.94 23.24C198.322 23.24 197.82 23.016 197.436 22.568C197.052 22.12 196.828 21.5333 196.764 20.808C196.743 20.3387 196.754 19.944 196.796 19.624C196.839 19.2827 196.839 18.9413 196.796 18.6C196.711 18.2373 196.572 18.0027 196.38 17.896C196.21 17.768 195.964 17.704 195.644 17.704C194.343 17.704 193.33 18.2693 192.604 19.4C191.9 20.5307 191.548 22.3333 191.548 24.808C191.548 26.9627 191.943 28.616 192.732 29.768C193.543 30.8987 194.78 31.464 196.444 31.464C197.447 31.464 198.258 31.2827 198.876 30.92C199.495 30.5573 200.092 30.0133 200.668 29.288L200.988 29.544C200.455 30.8027 199.634 31.7733 198.524 32.456C197.415 33.1387 196.103 33.48 194.588 33.48ZM212.229 17.128C213.616 17.128 214.8 17.416 215.781 17.992C216.763 18.5467 217.509 19.3147 218.021 20.296C218.555 21.256 218.821 22.3547 218.821 23.592C218.821 23.8267 218.811 24.072 218.789 24.328C218.768 24.5627 218.725 24.776 218.661 24.968H209.125C209.147 27.272 209.552 28.936 210.341 29.96C211.152 30.9627 212.347 31.464 213.925 31.464C214.992 31.464 215.856 31.2933 216.517 30.952C217.179 30.6107 217.797 30.1093 218.373 29.448L218.693 29.736C218.032 30.9093 217.147 31.8267 216.037 32.488C214.949 33.1493 213.637 33.48 212.101 33.48C210.587 33.48 209.243 33.16 208.069 32.52C206.896 31.8587 205.979 30.92 205.317 29.704C204.656 28.488 204.325 27.0373 204.325 25.352C204.325 23.6027 204.709 22.12 205.477 20.904C206.245 19.6667 207.227 18.728 208.421 18.088C209.637 17.448 210.907 17.128 212.229 17.128ZM212.133 17.768C211.515 17.768 210.981 17.96 210.533 18.344C210.107 18.7067 209.765 19.368 209.509 20.328C209.275 21.2667 209.147 22.6 209.125 24.328H214.597C214.811 22.0027 214.725 20.328 214.341 19.304C213.957 18.28 213.221 17.768 212.133 17.768Z" fill="white"/>
<path d="M55.136 57.344C54.896 57.248 54.648 57.144 54.392 57.032C54.152 56.92 53.92 56.752 53.696 56.528C53.488 56.32 53.304 56.024 53.144 55.64C52.984 55.176 52.872 54.72 52.808 54.272C52.76 53.824 52.744 53.304 52.76 52.712C52.76 51.88 52.816 51.16 52.928 50.552C53.056 49.928 53.248 49.296 53.504 48.656C53.536 48.608 53.592 48.472 53.672 48.248C53.768 48.008 53.872 47.752 53.984 47.48C54.112 47.208 54.208 47 54.272 46.856C54.4 46.584 54.592 46.224 54.848 45.776C55.12 45.312 55.408 44.864 55.712 44.432C56.176 43.744 56.56 43.2 56.864 42.8C57.168 42.4 57.456 42.064 57.728 41.792C58 41.52 58.304 41.264 58.64 41.024C58.992 40.768 59.44 40.456 59.984 40.088C60.336 39.832 60.72 39.696 61.136 39.68C61.568 39.664 61.968 39.76 62.336 39.968C62.704 40.16 62.976 40.448 63.152 40.832C63.328 41.168 63.416 41.576 63.416 42.056C63.416 42.52 63.344 43.016 63.2 43.544C63.056 44.056 62.856 44.544 62.6 45.008C62.344 45.472 62.048 45.856 61.712 46.16C61.504 46.352 61.312 46.424 61.136 46.376C60.976 46.328 60.784 46.2 60.56 45.992C60.416 45.72 60.336 45.56 60.32 45.512C60.32 45.464 60.352 45.432 60.416 45.416C60.512 45.304 60.64 45.112 60.8 44.84C60.96 44.568 61.12 44.28 61.28 43.976C61.44 43.656 61.552 43.4 61.616 43.208C61.744 42.536 61.832 42.064 61.88 41.792C61.928 41.504 61.88 41.288 61.736 41.144C61.672 41.08 61.576 41.056 61.448 41.072C61.336 41.088 61.144 41.168 60.872 41.312C60.504 41.472 60.024 41.832 59.432 42.392C58.84 42.936 58.296 43.544 57.8 44.216C57.16 45.064 56.624 45.816 56.192 46.472C55.76 47.128 55.432 47.8 55.208 48.488C55.176 48.552 55.12 48.672 55.04 48.848C54.976 49.024 54.944 49.112 54.944 49.112C54.96 49.176 54.936 49.336 54.872 49.592C54.808 49.832 54.736 50.04 54.656 50.216C54.48 50.952 54.376 51.72 54.344 52.52C54.312 53.304 54.352 54 54.464 54.608C54.592 55.216 54.776 55.64 55.016 55.88C55.224 56.024 55.504 56.072 55.856 56.024C56.224 55.976 56.64 55.864 57.104 55.688C57.568 55.512 58.04 55.32 58.52 55.112C58.904 54.952 59.256 54.776 59.576 54.584C59.896 54.392 60.136 54.224 60.296 54.08C60.424 53.984 60.584 53.888 60.776 53.792C60.984 53.68 61.16 53.624 61.304 53.624C61.528 53.544 61.656 53.512 61.688 53.528C61.72 53.544 61.736 53.616 61.736 53.744C61.736 53.968 61.608 54.216 61.352 54.488C61.112 54.76 60.8 55.008 60.416 55.232C60.288 55.36 60.12 55.496 59.912 55.64C59.704 55.784 59.488 55.896 59.264 55.976C58.928 56.232 58.512 56.48 58.016 56.72C57.52 56.96 57.016 57.144 56.504 57.272C56.008 57.4 55.552 57.424 55.136 57.344ZM66.8163 55.64C66.6083 55.64 66.4403 55.6 66.3123 55.52C66.2003 55.44 66.0563 55.328 65.8803 55.184C65.5763 54.864 65.3603 54.56 65.2323 54.272C65.1043 53.968 65.0643 53.68 65.1123 53.408C65.1603 53.28 65.1763 53.16 65.1603 53.048C65.1603 52.92 65.1603 52.856 65.1603 52.856C65.0803 52.776 65.0563 52.728 65.0883 52.712C65.1203 52.68 65.1523 52.632 65.1843 52.568C65.2803 52.568 65.3123 52.48 65.2803 52.304C65.2483 52.176 65.3123 51.896 65.4723 51.464C65.6323 51.032 65.8323 50.624 66.0723 50.24C66.1683 50.08 66.3123 49.872 66.5043 49.616C66.6963 49.344 66.9043 49.08 67.1283 48.824C67.3683 48.552 67.5843 48.336 67.7763 48.176C68.1763 47.84 68.5283 47.592 68.8323 47.432C69.1363 47.272 69.4643 47.152 69.8163 47.072C70.1683 46.992 70.4083 46.952 70.5363 46.952C70.6803 46.952 70.8723 47.08 71.1123 47.336C71.4803 47.496 71.7443 47.688 71.9043 47.912C72.0803 48.136 72.1923 48.464 72.2403 48.896C72.2883 49.376 72.2483 49.928 72.1203 50.552C72.0083 51.16 71.6323 51.92 70.9923 52.832C70.5923 53.408 70.2243 53.84 69.8883 54.128C69.5523 54.4 69.1523 54.672 68.6883 54.944C68.3523 55.168 68.0483 55.336 67.7763 55.448C67.5043 55.544 67.1843 55.608 66.8163 55.64ZM69.1203 53.096C69.5043 52.664 69.8083 52.256 70.0323 51.872C70.2723 51.488 70.4963 51 70.7043 50.408C70.7683 50.232 70.8083 50.016 70.8243 49.76C70.8403 49.488 70.8323 49.24 70.8003 49.016C70.7843 48.776 70.7283 48.64 70.6323 48.608C70.4403 48.496 70.2083 48.464 69.9363 48.512C69.6643 48.544 69.3683 48.696 69.0483 48.968C68.5523 49.384 68.1203 49.904 67.7523 50.528C67.3843 51.136 67.0243 51.832 66.6723 52.616C66.4323 53.192 66.3763 53.656 66.5043 54.008C66.6483 54.344 66.9443 54.464 67.3923 54.368C67.8563 54.256 68.4323 53.832 69.1203 53.096ZM77.6773 55.736C77.2133 55.816 76.7893 55.792 76.4053 55.664C76.0213 55.52 75.7093 55.288 75.4693 54.968C75.2453 54.632 75.1333 54.208 75.1333 53.696C75.0853 53.216 75.1413 52.664 75.3013 52.04C75.4613 51.4 75.6933 50.76 75.9973 50.12C76.3173 49.48 76.6613 48.928 77.0293 48.464C77.3493 48.08 77.6693 47.728 77.9893 47.408C78.3093 47.088 78.5973 46.872 78.8533 46.76C79.0773 46.664 79.2853 46.608 79.4773 46.592C79.6853 46.56 79.8533 46.544 79.9813 46.544C80.2373 46.608 80.5093 46.728 80.7973 46.904C81.1013 47.064 81.2533 47.24 81.2533 47.432C81.2533 47.432 81.2693 47.456 81.3013 47.504C81.3493 47.536 81.3733 47.552 81.3733 47.552C81.4693 47.552 81.5493 47.656 81.6133 47.864C81.6933 48.072 81.7413 48.312 81.7573 48.584C81.7733 48.84 81.7333 49.056 81.6373 49.232C81.5733 49.536 81.4613 49.8 81.3013 50.024C81.1413 50.248 80.9973 50.36 80.8693 50.36C80.8053 50.36 80.7413 50.368 80.6773 50.384C80.6293 50.384 80.6053 50.424 80.6053 50.504C80.6053 50.584 80.5573 50.616 80.4613 50.6C80.3813 50.584 80.2933 50.536 80.1973 50.456C80.1013 50.36 80.0293 50.248 79.9813 50.12C79.9813 50.04 80.0133 49.904 80.0773 49.712C80.1413 49.52 80.2053 49.272 80.2693 48.968C80.3653 48.52 80.3573 48.232 80.2453 48.104C80.1333 47.96 79.9173 47.952 79.5973 48.08C79.1973 48.304 78.8133 48.616 78.4453 49.016C78.0933 49.416 77.7653 49.936 77.4613 50.576C77.1573 51.2 76.8853 51.984 76.6453 52.928C76.5493 53.296 76.5093 53.616 76.5253 53.888C76.5573 54.16 76.5973 54.304 76.6453 54.32C76.8693 54.384 77.1733 54.4 77.5573 54.368C77.9413 54.32 78.2213 54.248 78.3973 54.152C78.6533 54.024 78.9413 53.856 79.2613 53.648C79.5813 53.424 79.8613 53.224 80.1013 53.048C80.1813 53 80.2773 52.92 80.3893 52.808C80.5013 52.696 80.6213 52.608 80.7493 52.544C80.8773 52.352 80.9893 52.24 81.0853 52.208C81.1813 52.176 81.3253 52.16 81.5173 52.16C81.6453 52.192 81.7653 52.24 81.8773 52.304C81.9893 52.368 82.0613 52.432 82.0933 52.496C82.1413 52.56 82.1173 52.616 82.0213 52.664C81.9573 52.664 81.9173 52.688 81.9013 52.736C81.9013 52.768 81.9013 52.784 81.9013 52.784C81.9333 52.848 81.8613 52.984 81.6853 53.192C81.5253 53.384 81.3173 53.6 81.0613 53.84C80.8053 54.08 80.5573 54.288 80.3173 54.464C80.0933 54.624 79.9333 54.704 79.8373 54.704C79.6773 54.704 79.5973 54.752 79.5973 54.848C79.5973 54.88 79.4773 54.96 79.2373 55.088C79.0133 55.216 78.7493 55.344 78.4453 55.472C78.1573 55.6 77.9013 55.688 77.6773 55.736ZM85.2005 55.472C85.0405 55.36 84.9205 55.256 84.8405 55.16C84.7605 55.064 84.7285 54.928 84.7445 54.752C84.7765 54.512 84.8245 54.264 84.8885 54.008C84.9525 53.736 85.0325 53.472 85.1285 53.216C85.1765 52.928 85.2325 52.64 85.2965 52.352C85.3765 52.064 85.5045 51.792 85.6805 51.536C85.8885 50.944 86.1045 50.36 86.3285 49.784C86.5525 49.192 86.7445 48.576 86.9045 47.936C87.1445 47.36 87.3605 46.848 87.5525 46.4C87.7605 45.952 88.0085 45.376 88.2965 44.672C88.4565 44.304 88.5925 43.896 88.7045 43.448C88.8325 42.984 89.0245 42.576 89.2805 42.224C89.3925 42.08 89.4725 41.96 89.5205 41.864C89.5845 41.752 89.6485 41.648 89.7125 41.552C89.7445 41.456 89.8485 41.424 90.0245 41.456C90.2165 41.488 90.3525 41.56 90.4325 41.672C90.5125 41.656 90.6085 41.76 90.7205 41.984C90.8325 42.208 90.8725 42.384 90.8405 42.512C90.8405 42.688 90.7765 42.88 90.6485 43.088C90.5845 43.152 90.5205 43.248 90.4565 43.376C90.3925 43.488 90.2965 43.64 90.1685 43.832C90.1045 44.04 90.0405 44.248 89.9765 44.456C89.9125 44.664 89.8405 44.856 89.7605 45.032C89.6805 45.208 89.5925 45.384 89.4965 45.56C89.4005 45.736 89.3365 45.88 89.3045 45.992C89.1605 46.36 89.0005 46.72 88.8245 47.072C88.6645 47.408 88.5205 47.768 88.3925 48.152C88.2645 48.52 88.1285 48.912 87.9845 49.328C87.8565 49.728 87.6805 50.112 87.4565 50.48C87.3445 50.64 87.2565 50.856 87.1925 51.128C87.1285 51.4 87.0645 51.664 87.0005 51.92C86.8885 52.208 86.7845 52.472 86.6885 52.712C86.6085 52.952 86.5685 53.104 86.5685 53.168C86.4565 53.52 86.3685 53.872 86.3045 54.224C86.2405 54.56 86.1365 54.856 85.9925 55.112C85.9765 55.352 85.9045 55.512 85.7765 55.592C85.6645 55.672 85.4725 55.632 85.2005 55.472ZM90.9365 55.856C90.6805 55.824 90.4885 55.776 90.3605 55.712C90.2325 55.632 89.9925 55.464 89.6405 55.208C89.4485 55.016 89.1845 54.72 88.8485 54.32C88.5125 53.92 88.1765 53.496 87.8405 53.048C87.5045 52.584 87.2245 52.192 87.0005 51.872L87.9845 50.552C88.1925 50.808 88.3605 51.048 88.4885 51.272C88.6165 51.496 88.7205 51.648 88.8005 51.728C89.1685 52.272 89.4565 52.712 89.6645 53.048C89.8885 53.384 90.0885 53.656 90.2645 53.864C90.4405 54.072 90.6245 54.256 90.8165 54.416C91.0245 54.576 91.2805 54.744 91.5845 54.92C91.6325 54.952 91.6805 55 91.7285 55.064C91.7765 55.128 91.7925 55.224 91.7765 55.352C91.7125 55.528 91.6405 55.64 91.5605 55.688C91.4965 55.72 91.2885 55.776 90.9365 55.856ZM86.9285 51.608C86.8325 51.336 86.8645 51.064 87.0245 50.792C87.2005 50.504 87.3925 50.304 87.6005 50.192C87.6645 50.08 87.7285 50.008 87.7925 49.976C87.8725 49.928 87.9205 49.872 87.9365 49.808C87.9685 49.744 88.0485 49.656 88.1765 49.544C88.3205 49.432 88.4485 49.328 88.5605 49.232C88.8165 49.072 89.1045 48.88 89.4245 48.656C89.7605 48.416 90.0805 48.176 90.3845 47.936C90.6885 47.696 90.9445 47.488 91.1525 47.312C91.3765 47.136 91.5125 47.024 91.5605 46.976C91.6085 46.912 91.6725 46.872 91.7525 46.856C91.8485 46.824 91.9685 46.84 92.1125 46.904C92.3045 46.952 92.4325 47.032 92.4965 47.144C92.5605 47.24 92.5925 47.432 92.5925 47.72C92.6405 47.896 92.5685 48.088 92.3765 48.296C92.2005 48.488 91.9285 48.704 91.5605 48.944C91.4325 49.024 91.2565 49.144 91.0325 49.304C90.8245 49.464 90.6405 49.616 90.4805 49.76C90.3685 49.824 90.2005 49.936 89.9765 50.096C89.7685 50.24 89.5845 50.384 89.4245 50.528C89.2965 50.608 89.1285 50.752 88.9205 50.96C88.7125 51.152 88.5045 51.296 88.2965 51.392C87.7845 51.872 87.4485 52.128 87.2885 52.16C87.1285 52.192 87.0085 52.008 86.9285 51.608ZM97.3981 57.2C96.8701 57.12 96.5101 56.92 96.3181 56.6C96.1421 56.296 96.1021 55.824 96.1981 55.184C96.2941 54.88 96.3501 54.608 96.3661 54.368C96.3981 54.112 96.4701 53.952 96.5821 53.888C96.5821 53.888 96.5901 53.864 96.6061 53.816C96.6381 53.768 96.6301 53.72 96.5821 53.672C96.5821 53.464 96.6541 53.176 96.7981 52.808C96.8301 52.712 96.8701 52.6 96.9181 52.472C96.9821 52.328 97.0141 52.256 97.0141 52.256C96.9341 52.128 96.9341 52.024 97.0141 51.944C97.0941 51.864 97.1741 51.792 97.2541 51.728C97.3501 51.648 97.3581 51.56 97.2781 51.464C97.2461 51.4 97.2861 51.256 97.3981 51.032C97.5101 50.792 97.6381 50.544 97.7821 50.288C97.9261 50.032 98.0221 49.832 98.0701 49.688C98.0701 49.656 98.1101 49.544 98.1901 49.352C98.2701 49.16 98.3661 48.936 98.4781 48.68C98.5901 48.424 98.6941 48.192 98.7901 47.984C98.9021 47.776 98.9741 47.64 99.0061 47.576C99.1661 47.496 99.1021 47.44 98.8141 47.408C98.5261 47.376 98.2221 47.368 97.9021 47.384C97.4061 47.368 97.0061 47.344 96.7021 47.312C96.4141 47.28 96.1741 47.208 95.9821 47.096C95.7901 46.872 95.7181 46.712 95.7661 46.616C95.8301 46.504 96.0221 46.44 96.3421 46.424C96.5501 46.408 96.7101 46.4 96.8221 46.4C96.9501 46.4 97.1101 46.392 97.3021 46.376C97.5101 46.344 97.8301 46.304 98.2621 46.256L99.4861 46.16L99.5581 45.752C99.6861 45.544 99.7901 45.36 99.8701 45.2C99.9661 45.024 100.046 44.848 100.11 44.672C100.174 44.496 100.222 44.312 100.254 44.12C100.254 44.12 100.326 43.992 100.47 43.736C100.614 43.464 100.702 43.184 100.734 42.896C100.926 42.576 101.094 42.288 101.238 42.032C101.382 41.76 101.47 41.592 101.502 41.528C101.678 41.384 101.798 41.312 101.862 41.312C101.942 41.312 102.102 41.392 102.342 41.552C102.486 41.632 102.614 41.728 102.726 41.84C102.838 41.952 102.91 42.072 102.942 42.2C102.974 42.312 102.926 42.424 102.798 42.536C102.766 42.6 102.718 42.72 102.654 42.896C102.59 43.056 102.542 43.192 102.51 43.304C102.414 43.416 102.294 43.6 102.15 43.856C102.022 44.096 101.934 44.344 101.886 44.6C101.758 44.872 101.638 45.12 101.526 45.344C101.414 45.552 101.326 45.656 101.262 45.656C101.294 45.816 101.39 45.896 101.55 45.896C101.71 45.88 101.974 45.864 102.342 45.848C102.646 45.816 102.854 45.784 102.966 45.752C103.094 45.704 103.238 45.72 103.398 45.8C103.478 45.912 103.542 46.04 103.59 46.184C103.638 46.328 103.646 46.464 103.614 46.592C103.598 46.704 103.534 46.784 103.422 46.832C103.342 46.832 103.174 46.88 102.918 46.976C102.678 47.056 102.374 47.104 102.006 47.12L100.734 47.24L100.326 48.056C100.214 48.264 100.118 48.456 100.038 48.632C99.9581 48.792 99.9021 48.888 99.8701 48.92C99.8701 49.016 99.8141 49.16 99.7021 49.352C99.6061 49.544 99.5021 49.752 99.3901 49.976C99.2941 50.248 99.1821 50.496 99.0541 50.72C98.9421 50.944 98.8861 51.056 98.8861 51.056C98.8221 51.056 98.7901 51.104 98.7901 51.2C98.8701 51.392 98.8461 51.536 98.7181 51.632C98.6381 51.68 98.5661 51.752 98.5021 51.848C98.4541 51.928 98.4301 51.968 98.4301 51.968C98.4941 52.032 98.5021 52.112 98.4541 52.208C98.4221 52.304 98.3741 52.408 98.3101 52.52C98.3101 52.648 98.2701 52.832 98.1901 53.072C98.1261 53.312 98.0541 53.536 97.9741 53.744C97.9901 54.032 98.0061 54.216 98.0221 54.296C98.0381 54.376 98.0781 54.408 98.1421 54.392C98.2221 54.408 98.2941 54.408 98.3581 54.392C98.4221 54.376 98.4861 54.368 98.5501 54.368C98.7741 54.272 98.6541 54.832 98.1901 56.048C97.9341 56.448 97.7581 56.736 97.6621 56.912C97.5661 57.104 97.4781 57.2 97.3981 57.2ZM106.663 55.304C106.535 55.336 106.367 55.352 106.159 55.352C105.951 55.336 105.767 55.312 105.607 55.28C105.463 55.232 105.391 55.184 105.391 55.136C105.391 55.056 105.351 55.016 105.271 55.016C105.271 55.016 105.231 54.984 105.151 54.92C105.087 54.856 104.983 54.792 104.839 54.728C104.695 54.504 104.623 54.264 104.623 54.008C104.623 53.736 104.695 53.312 104.839 52.736C104.887 52.336 105.039 51.872 105.295 51.344C105.567 50.8 105.895 50.248 106.279 49.688C106.663 49.128 107.063 48.624 107.479 48.176C107.911 47.728 108.303 47.4 108.655 47.192C108.879 46.968 109.151 46.848 109.471 46.832C109.791 46.816 110.095 46.888 110.383 47.048C110.543 47.128 110.703 47.256 110.863 47.432C111.023 47.608 111.175 47.8 111.319 48.008C111.463 48.216 111.583 48.424 111.679 48.632C111.727 48.808 111.751 48.968 111.751 49.112C111.767 49.24 111.767 49.4 111.751 49.592C111.751 49.784 111.727 50.072 111.679 50.456C111.599 50.744 111.527 51.096 111.463 51.512C111.415 51.928 111.391 52.288 111.391 52.592C111.359 52.896 111.391 53.112 111.487 53.24C111.599 53.368 111.759 53.376 111.967 53.264C112.159 53.168 112.343 53.128 112.519 53.144C112.695 53.144 112.831 53.192 112.927 53.288C113.039 53.384 113.095 53.528 113.095 53.72C113.095 53.912 112.999 54.112 112.807 54.32C112.631 54.512 112.407 54.68 112.135 54.824C111.879 54.952 111.631 55.016 111.391 55.016C111.215 55.016 111.047 54.912 110.887 54.704C110.727 54.48 110.583 54.216 110.455 53.912C110.343 53.592 110.239 53.288 110.143 53L109.999 52.448L108.967 53.432C108.759 53.656 108.551 53.864 108.343 54.056C108.151 54.232 108.031 54.36 107.983 54.44C107.903 54.584 107.751 54.728 107.527 54.872C107.319 55.016 107.031 55.16 106.663 55.304ZM106.735 53.888C107.007 53.728 107.319 53.496 107.671 53.192C108.023 52.872 108.367 52.528 108.703 52.16C109.039 51.776 109.319 51.424 109.543 51.104C109.815 50.736 110.023 50.392 110.167 50.072C110.311 49.752 110.415 49.448 110.479 49.16C110.415 48.984 110.311 48.8 110.167 48.608C110.023 48.4 109.895 48.288 109.783 48.272C109.431 48.272 109.055 48.496 108.655 48.944C108.271 49.376 107.895 49.848 107.527 50.36C107.463 50.44 107.375 50.568 107.263 50.744C107.151 50.92 107.039 51.088 106.927 51.248C106.831 51.392 106.767 51.488 106.735 51.536C106.687 51.6 106.591 51.784 106.447 52.088C106.319 52.376 106.191 52.672 106.063 52.976C105.935 53.264 105.871 53.456 105.871 53.552C105.871 53.648 105.879 53.752 105.895 53.864C105.927 53.976 106.007 54.048 106.135 54.08C106.263 54.112 106.463 54.048 106.735 53.888ZM116.152 54.824C116.088 54.824 116.008 54.808 115.912 54.776C115.832 54.728 115.792 54.704 115.792 54.704C115.792 54.64 115.768 54.56 115.72 54.464C115.688 54.368 115.672 54.288 115.672 54.224C115.56 54.16 115.496 54.096 115.48 54.032C115.464 53.952 115.488 53.824 115.552 53.648C115.648 53.488 115.776 53.232 115.936 52.88C116.096 52.512 116.264 52.12 116.44 51.704C116.616 51.272 116.784 50.848 116.944 50.432C117.104 50.016 117.24 49.664 117.352 49.376C117.464 49.072 117.528 48.888 117.544 48.824C117.544 48.76 117.568 48.68 117.616 48.584C117.664 48.488 117.72 48.408 117.784 48.344C117.912 48.232 118.048 48.224 118.192 48.32C118.336 48.4 118.456 48.544 118.552 48.752C118.664 48.944 118.72 49.16 118.72 49.4C118.72 49.512 118.64 49.8 118.48 50.264C118.32 50.712 118.104 51.248 117.832 51.872C117.576 52.496 117.288 53.128 116.968 53.768C116.728 54.232 116.576 54.528 116.512 54.656C116.448 54.768 116.328 54.824 116.152 54.824ZM119.68 45.728C119.488 45.728 119.28 45.656 119.056 45.512C118.848 45.352 118.664 45.16 118.504 44.936C118.36 44.696 118.288 44.456 118.288 44.216C118.288 44.136 118.336 44.024 118.432 43.88C118.528 43.736 118.624 43.592 118.72 43.448C118.816 43.304 118.864 43.216 118.864 43.184C118.992 43.184 119.088 43.192 119.152 43.208C119.232 43.208 119.328 43.24 119.44 43.304C119.616 43.704 119.832 44.032 120.088 44.288C120.36 44.544 120.496 44.76 120.496 44.936C120.496 45.288 120.464 45.512 120.4 45.608C120.336 45.688 120.096 45.728 119.68 45.728ZM122.333 56C122.029 56.08 121.781 56.016 121.589 55.808C121.413 55.6 121.309 55.28 121.277 54.848C121.245 54.416 121.293 53.904 121.421 53.312C121.501 53.12 121.565 52.936 121.613 52.76C121.661 52.568 121.685 52.416 121.685 52.304C121.717 52.144 121.781 51.912 121.877 51.608C121.973 51.288 122.077 50.96 122.189 50.624C122.301 50.288 122.405 49.992 122.501 49.736C122.613 49.464 122.685 49.296 122.717 49.232C122.781 49.232 122.837 49.176 122.885 49.064C122.933 48.952 122.957 48.84 122.957 48.728C122.957 48.6 122.981 48.456 123.029 48.296C123.093 48.136 123.157 48.024 123.221 47.96C123.221 47.88 123.237 47.792 123.269 47.696C123.317 47.584 123.341 47.496 123.341 47.432C123.341 47.368 123.357 47.304 123.389 47.24C123.437 47.176 123.461 47.112 123.461 47.048C123.573 46.84 123.717 46.512 123.893 46.064C124.085 45.6 124.285 45.088 124.493 44.528C124.717 43.968 124.925 43.416 125.117 42.872C125.309 42.328 125.461 41.872 125.573 41.504C125.701 41.12 125.765 40.888 125.765 40.808C125.765 40.68 125.797 40.584 125.861 40.52C125.925 40.456 126.021 40.424 126.149 40.424C126.197 40.376 126.253 40.344 126.317 40.328C126.397 40.312 126.469 40.304 126.533 40.304C126.533 40.304 126.565 40.336 126.629 40.4C126.693 40.464 126.789 40.56 126.917 40.688C127.045 40.8 127.117 40.928 127.133 41.072C127.165 41.216 127.181 41.384 127.181 41.576C127.181 41.784 127.157 41.968 127.109 42.128C127.061 42.288 126.965 42.52 126.821 42.824C126.677 43.128 126.453 43.6 126.149 44.24C126.021 44.56 125.885 44.864 125.741 45.152C125.597 45.424 125.525 45.592 125.525 45.656C125.525 45.72 125.493 45.816 125.429 45.944C125.381 46.072 125.325 46.232 125.261 46.424C125.197 46.552 125.109 46.744 124.997 47C124.885 47.24 124.765 47.504 124.637 47.792C124.525 48.064 124.429 48.304 124.349 48.512C124.269 48.704 124.229 48.816 124.229 48.848C124.229 48.912 124.221 48.976 124.205 49.04C124.205 49.104 124.173 49.168 124.109 49.232C124.045 49.232 124.005 49.28 123.989 49.376C123.989 49.456 123.989 49.496 123.989 49.496C123.989 49.656 123.861 50.08 123.605 50.768C123.349 51.648 123.109 52.456 122.885 53.192C122.677 53.928 122.573 54.52 122.573 54.968C122.573 55.352 122.565 55.608 122.549 55.736C122.533 55.848 122.461 55.936 122.333 56ZM137.096 57.344C136.856 57.248 136.608 57.144 136.352 57.032C136.112 56.92 135.88 56.752 135.656 56.528C135.448 56.32 135.264 56.024 135.104 55.64C134.944 55.176 134.832 54.72 134.768 54.272C134.72 53.824 134.704 53.304 134.72 52.712C134.72 51.88 134.776 51.16 134.888 50.552C135.016 49.928 135.208 49.296 135.464 48.656C135.496 48.608 135.552 48.472 135.632 48.248C135.728 48.008 135.832 47.752 135.944 47.48C136.072 47.208 136.168 47 136.232 46.856C136.36 46.584 136.552 46.224 136.808 45.776C137.08 45.312 137.368 44.864 137.672 44.432C138.136 43.744 138.52 43.2 138.824 42.8C139.128 42.4 139.416 42.064 139.688 41.792C139.96 41.52 140.264 41.264 140.6 41.024C140.952 40.768 141.4 40.456 141.944 40.088C142.296 39.832 142.68 39.696 143.096 39.68C143.528 39.664 143.928 39.76 144.296 39.968C144.664 40.16 144.936 40.448 145.112 40.832C145.288 41.168 145.376 41.576 145.376 42.056C145.376 42.52 145.304 43.016 145.16 43.544C145.016 44.056 144.816 44.544 144.56 45.008C144.304 45.472 144.008 45.856 143.672 46.16C143.464 46.352 143.272 46.424 143.096 46.376C142.936 46.328 142.744 46.2 142.52 45.992C142.376 45.72 142.296 45.56 142.28 45.512C142.28 45.464 142.312 45.432 142.376 45.416C142.472 45.304 142.6 45.112 142.76 44.84C142.92 44.568 143.08 44.28 143.24 43.976C143.4 43.656 143.512 43.4 143.576 43.208C143.704 42.536 143.792 42.064 143.84 41.792C143.888 41.504 143.84 41.288 143.696 41.144C143.632 41.08 143.536 41.056 143.408 41.072C143.296 41.088 143.104 41.168 142.832 41.312C142.464 41.472 141.984 41.832 141.392 42.392C140.8 42.936 140.256 43.544 139.76 44.216C139.12 45.064 138.584 45.816 138.152 46.472C137.72 47.128 137.392 47.8 137.168 48.488C137.136 48.552 137.08 48.672 137 48.848C136.936 49.024 136.904 49.112 136.904 49.112C136.92 49.176 136.896 49.336 136.832 49.592C136.768 49.832 136.696 50.04 136.616 50.216C136.44 50.952 136.336 51.72 136.304 52.52C136.272 53.304 136.312 54 136.424 54.608C136.552 55.216 136.736 55.64 136.976 55.88C137.184 56.024 137.464 56.072 137.816 56.024C138.184 55.976 138.6 55.864 139.064 55.688C139.528 55.512 140 55.32 140.48 55.112C140.864 54.952 141.216 54.776 141.536 54.584C141.856 54.392 142.096 54.224 142.256 54.08C142.384 53.984 142.544 53.888 142.736 53.792C142.944 53.68 143.12 53.624 143.264 53.624C143.488 53.544 143.616 53.512 143.648 53.528C143.68 53.544 143.696 53.616 143.696 53.744C143.696 53.968 143.568 54.216 143.312 54.488C143.072 54.76 142.76 55.008 142.376 55.232C142.248 55.36 142.08 55.496 141.872 55.64C141.664 55.784 141.448 55.896 141.224 55.976C140.888 56.232 140.472 56.48 139.976 56.72C139.48 56.96 138.976 57.144 138.464 57.272C137.968 57.4 137.512 57.424 137.096 57.344ZM147.504 54.872C147.344 54.776 147.224 54.68 147.144 54.584C147.064 54.488 147.024 54.352 147.024 54.176C147.024 53.936 147.056 53.688 147.12 53.432C147.184 53.16 147.248 52.896 147.312 52.64C147.344 52.352 147.384 52.064 147.432 51.776C147.496 51.472 147.608 51.192 147.768 50.936C147.944 50.328 148.128 49.728 148.32 49.136C148.512 48.528 148.68 47.904 148.824 47.264C149.032 46.672 149.216 46.152 149.376 45.704C149.552 45.24 149.768 44.656 150.024 43.952C150.168 43.552 150.288 43.128 150.384 42.68C150.496 42.216 150.664 41.8 150.888 41.432C150.984 41.288 151.056 41.168 151.104 41.072C151.168 40.96 151.232 40.856 151.296 40.76C151.312 40.696 151.36 40.656 151.44 40.64C151.536 40.624 151.64 40.632 151.752 40.664C151.864 40.696 151.952 40.752 152.016 40.832C152.064 40.816 152.12 40.864 152.184 40.976C152.264 41.072 152.336 41.184 152.4 41.312C152.464 41.44 152.488 41.552 152.472 41.648C152.472 41.712 152.456 41.8 152.424 41.912C152.408 42.024 152.368 42.128 152.304 42.224C152.24 42.288 152.176 42.384 152.112 42.512C152.064 42.624 151.984 42.784 151.872 42.992C151.808 43.2 151.752 43.416 151.704 43.64C151.656 43.848 151.592 44.04 151.512 44.216C151.448 44.408 151.368 44.592 151.272 44.768C151.192 44.944 151.136 45.088 151.104 45.2C150.992 45.568 150.856 45.928 150.696 46.28C150.552 46.632 150.424 47.008 150.312 47.408C150.2 47.792 150.088 48.192 149.976 48.608C149.864 49.008 149.704 49.392 149.496 49.76C149.384 49.936 149.304 50.16 149.256 50.432C149.208 50.704 149.16 50.976 149.112 51.248C149.016 51.536 148.928 51.808 148.848 52.064C148.784 52.304 148.752 52.456 148.752 52.52C148.656 52.872 148.584 53.224 148.536 53.576C148.504 53.912 148.424 54.208 148.296 54.464C148.28 54.624 148.248 54.752 148.2 54.848C148.152 54.944 148.072 55 147.96 55.016C147.848 55.016 147.696 54.968 147.504 54.872ZM158.351 55.952C158.191 55.792 158.031 55.576 157.871 55.304C157.711 55.016 157.583 54.688 157.487 54.32C157.455 54.192 157.439 54.016 157.439 53.792C157.455 53.568 157.455 53.408 157.439 53.312C157.391 53.424 157.311 53.544 157.199 53.672C157.103 53.784 157.007 53.88 156.911 53.96C156.847 54.024 156.703 54.152 156.479 54.344C156.255 54.52 156.031 54.664 155.807 54.776C155.279 55.112 154.839 55.296 154.487 55.328C154.151 55.36 153.831 55.184 153.527 54.8C153.271 54.592 153.087 54.36 152.975 54.104C152.879 53.848 152.879 53.496 152.975 53.048C153.007 52.488 153.087 51.944 153.215 51.416C153.343 50.872 153.607 50.152 154.007 49.256C154.343 48.6 154.599 48.12 154.775 47.816C154.951 47.496 155.063 47.304 155.111 47.24C155.351 47.16 155.551 47.168 155.711 47.264C155.871 47.344 155.967 47.496 155.999 47.72C156.095 47.88 156.079 48.152 155.951 48.536C155.839 48.92 155.639 49.392 155.351 49.952C155.127 50.496 154.919 51.04 154.727 51.584C154.551 52.128 154.447 52.592 154.415 52.976C154.383 53.36 154.479 53.592 154.703 53.672C154.847 53.752 155.095 53.728 155.447 53.6C155.815 53.472 156.223 53.152 156.671 52.64C157.135 52.128 157.583 51.352 158.015 50.312C158.143 49.992 158.239 49.712 158.303 49.472C158.367 49.216 158.407 48.936 158.423 48.632C158.391 48.44 158.399 48.272 158.447 48.128C158.511 47.968 158.639 47.832 158.831 47.72C158.895 47.64 158.983 47.568 159.095 47.504C159.207 47.424 159.279 47.424 159.311 47.504L159.695 47.48C159.759 47.464 159.799 47.504 159.815 47.6C159.847 47.68 159.903 47.752 159.983 47.816C160.159 47.96 160.207 48.272 160.127 48.752C160.047 49.232 159.823 49.904 159.455 50.768C159.151 51.424 158.943 51.92 158.831 52.256C158.735 52.592 158.679 52.92 158.663 53.24C158.663 53.528 158.719 53.8 158.831 54.056C158.943 54.312 159.119 54.544 159.359 54.752C159.535 54.864 159.631 54.992 159.647 55.136C159.679 55.28 159.687 55.448 159.671 55.64C159.639 55.784 159.543 55.904 159.383 56C159.239 56.08 159.071 56.12 158.879 56.12C158.687 56.12 158.511 56.064 158.351 55.952ZM164.138 54.776C164.138 54.648 164.122 54.528 164.09 54.416C164.058 54.304 164.074 54.216 164.138 54.152L164.33 54.2C164.266 54.216 164.17 54.224 164.042 54.224C163.914 54.208 163.794 54.184 163.682 54.152C163.586 54.104 163.53 54.064 163.514 54.032C163.53 53.76 163.546 53.552 163.562 53.408C163.594 53.264 163.634 53.144 163.682 53.048C163.682 52.904 163.73 52.72 163.826 52.496C163.922 52.272 164.002 52.04 164.066 51.8C164.13 51.528 164.21 51.12 164.306 50.576C164.418 50.032 164.578 49.512 164.786 49.016C164.914 48.6 165.074 48.08 165.266 47.456C165.458 46.816 165.642 46.288 165.818 45.872C166.01 45.136 166.186 44.544 166.346 44.096C166.522 43.632 166.698 43.216 166.874 42.848C167.066 42.464 167.274 42.032 167.498 41.552C167.562 41.424 167.626 41.264 167.69 41.072C167.754 40.864 167.81 40.688 167.858 40.544C167.89 40.416 168.01 40.328 168.218 40.28C168.442 40.216 168.65 40.28 168.842 40.472C169.018 40.648 169.114 40.8 169.13 40.928C169.146 41.056 169.09 41.272 168.962 41.576C168.85 41.864 168.658 42.344 168.386 43.016C168.274 43.176 168.146 43.448 168.002 43.832C167.874 44.2 167.754 44.528 167.642 44.816C167.402 45.376 167.21 45.856 167.066 46.256C166.922 46.656 166.786 47.064 166.658 47.48C166.546 47.928 166.41 48.432 166.25 48.992C166.106 49.552 165.954 50.08 165.794 50.576L165.41 50.696C165.522 50.552 165.658 50.384 165.818 50.192C165.994 50 166.154 49.824 166.298 49.664C166.458 49.504 166.562 49.4 166.61 49.352C167.042 48.984 167.522 48.648 168.05 48.344C168.578 48.024 169.074 47.784 169.538 47.624C170.018 47.464 170.378 47.432 170.618 47.528C170.81 47.592 171.05 47.76 171.338 48.032C171.626 48.304 171.794 48.56 171.842 48.8C171.97 49.056 171.994 49.36 171.914 49.712C171.834 50.048 171.642 50.496 171.338 51.056C171.066 51.552 170.754 52.032 170.402 52.496C170.05 52.944 169.714 53.32 169.394 53.624C169.282 53.688 169.138 53.8 168.962 53.96C168.802 54.104 168.658 54.248 168.53 54.392C168.194 54.696 167.794 54.936 167.33 55.112C166.882 55.288 166.434 55.4 165.986 55.448C165.538 55.48 165.146 55.44 164.81 55.328C164.474 55.216 164.25 55.032 164.138 54.776ZM164.498 54.128C164.578 54.144 164.658 54.16 164.738 54.176C164.818 54.176 164.906 54.176 165.002 54.176C165.354 54.128 165.65 54.08 165.89 54.032C166.146 53.968 166.394 53.888 166.634 53.792C166.874 53.68 167.138 53.536 167.426 53.36C167.842 53.04 168.218 52.728 168.554 52.424C168.906 52.104 169.234 51.752 169.538 51.368C169.81 51.016 170.05 50.6 170.258 50.12C170.482 49.64 170.594 49.264 170.594 48.992C170.594 48.848 170.554 48.776 170.474 48.776C170.442 48.776 170.298 48.824 170.042 48.92C169.786 49 169.522 49.104 169.25 49.232C168.994 49.344 168.826 49.44 168.746 49.52C168.746 49.584 168.698 49.64 168.602 49.688C168.506 49.72 168.458 49.736 168.458 49.736C167.962 50.104 167.57 50.424 167.282 50.696C166.994 50.952 166.754 51.2 166.562 51.44C166.45 51.6 166.354 51.736 166.274 51.848C166.194 51.944 166.114 52.048 166.034 52.16C165.97 52.272 165.874 52.416 165.746 52.592C165.634 52.768 165.482 53.008 165.29 53.312C165.178 53.52 165.034 53.72 164.858 53.912C164.698 54.104 164.578 54.216 164.498 54.248V54.128Z" fill="white"/>
</svg>
