<svg width="149" height="56" viewBox="0 0 149 56" fill="none" xmlns="http://www.w3.org/2000/svg">
<path d="M19.136 50.344C18.896 50.248 18.648 50.144 18.392 50.032C18.152 49.92 17.92 49.752 17.696 49.528C17.488 49.32 17.304 49.024 17.144 48.64C16.984 48.176 16.872 47.72 16.808 47.272C16.76 46.824 16.744 46.304 16.76 45.712C16.76 44.88 16.816 44.16 16.928 43.552C17.056 42.928 17.248 42.296 17.504 41.656C17.536 41.608 17.592 41.472 17.672 41.248C17.768 41.008 17.872 40.752 17.984 40.48C18.112 40.208 18.208 40 18.272 39.856C18.4 39.584 18.592 39.224 18.848 38.776C19.12 38.312 19.408 37.864 19.712 37.432C20.176 36.744 20.56 36.2 20.864 35.8C21.168 35.4 21.456 35.064 21.728 34.792C22 34.52 22.304 34.264 22.64 34.024C22.992 33.768 23.44 33.456 23.984 33.088C24.336 32.832 24.72 32.696 25.136 32.68C25.568 32.664 25.968 32.76 26.336 32.968C26.704 33.16 26.976 33.448 27.152 33.832C27.328 34.168 27.416 34.576 27.416 35.056C27.416 35.52 27.344 36.016 27.2 36.544C27.056 37.056 26.856 37.544 26.6 38.008C26.344 38.472 26.048 38.856 25.712 39.16C25.504 39.352 25.312 39.424 25.136 39.376C24.976 39.328 24.784 39.2 24.56 38.992C24.416 38.72 24.336 38.56 24.32 38.512C24.32 38.464 24.352 38.432 24.416 38.416C24.512 38.304 24.64 38.112 24.8 37.84C24.96 37.568 25.12 37.28 25.28 36.976C25.44 36.656 25.552 36.4 25.616 36.208C25.744 35.536 25.832 35.064 25.88 34.792C25.928 34.504 25.88 34.288 25.736 34.144C25.672 34.08 25.576 34.056 25.448 34.072C25.336 34.088 25.144 34.168 24.872 34.312C24.504 34.472 24.024 34.832 23.432 35.392C22.84 35.936 22.296 36.544 21.8 37.216C21.16 38.064 20.624 38.816 20.192 39.472C19.76 40.128 19.432 40.8 19.208 41.488C19.176 41.552 19.12 41.672 19.04 41.848C18.976 42.024 18.944 42.112 18.944 42.112C18.96 42.176 18.936 42.336 18.872 42.592C18.808 42.832 18.736 43.04 18.656 43.216C18.48 43.952 18.376 44.72 18.344 45.52C18.312 46.304 18.352 47 18.464 47.608C18.592 48.216 18.776 48.64 19.016 48.88C19.224 49.024 19.504 49.072 19.856 49.024C20.224 48.976 20.64 48.864 21.104 48.688C21.568 48.512 22.04 48.32 22.52 48.112C22.904 47.952 23.256 47.776 23.576 47.584C23.896 47.392 24.136 47.224 24.296 47.08C24.424 46.984 24.584 46.888 24.776 46.792C24.984 46.68 25.16 46.624 25.304 46.624C25.528 46.544 25.656 46.512 25.688 46.528C25.72 46.544 25.736 46.616 25.736 46.744C25.736 46.968 25.608 47.216 25.352 47.488C25.112 47.76 24.8 48.008 24.416 48.232C24.288 48.36 24.12 48.496 23.912 48.64C23.704 48.784 23.488 48.896 23.264 48.976C22.928 49.232 22.512 49.48 22.016 49.72C21.52 49.96 21.016 50.144 20.504 50.272C20.008 50.4 19.552 50.424 19.136 50.344ZM30.8163 48.64C30.6083 48.64 30.4403 48.6 30.3123 48.52C30.2003 48.44 30.0563 48.328 29.8803 48.184C29.5763 47.864 29.3603 47.56 29.2323 47.272C29.1043 46.968 29.0643 46.68 29.1123 46.408C29.1603 46.28 29.1763 46.16 29.1603 46.048C29.1603 45.92 29.1603 45.856 29.1603 45.856C29.0803 45.776 29.0563 45.728 29.0883 45.712C29.1203 45.68 29.1523 45.632 29.1843 45.568C29.2803 45.568 29.3123 45.48 29.2803 45.304C29.2483 45.176 29.3123 44.896 29.4723 44.464C29.6323 44.032 29.8323 43.624 30.0723 43.24C30.1683 43.08 30.3123 42.872 30.5043 42.616C30.6963 42.344 30.9043 42.08 31.1283 41.824C31.3683 41.552 31.5843 41.336 31.7763 41.176C32.1763 40.84 32.5283 40.592 32.8323 40.432C33.1363 40.272 33.4643 40.152 33.8163 40.072C34.1683 39.992 34.4083 39.952 34.5363 39.952C34.6803 39.952 34.8723 40.08 35.1123 40.336C35.4803 40.496 35.7443 40.688 35.9043 40.912C36.0803 41.136 36.1923 41.464 36.2403 41.896C36.2883 42.376 36.2483 42.928 36.1203 43.552C36.0083 44.16 35.6323 44.92 34.9923 45.832C34.5923 46.408 34.2243 46.84 33.8883 47.128C33.5523 47.4 33.1523 47.672 32.6883 47.944C32.3523 48.168 32.0483 48.336 31.7763 48.448C31.5043 48.544 31.1843 48.608 30.8163 48.64ZM33.1203 46.096C33.5043 45.664 33.8083 45.256 34.0323 44.872C34.2723 44.488 34.4963 44 34.7043 43.408C34.7683 43.232 34.8083 43.016 34.8243 42.76C34.8403 42.488 34.8323 42.24 34.8003 42.016C34.7843 41.776 34.7283 41.64 34.6323 41.608C34.4403 41.496 34.2083 41.464 33.9363 41.512C33.6643 41.544 33.3683 41.696 33.0483 41.968C32.5523 42.384 32.1203 42.904 31.7523 43.528C31.3843 44.136 31.0243 44.832 30.6723 45.616C30.4323 46.192 30.3763 46.656 30.5043 47.008C30.6483 47.344 30.9443 47.464 31.3923 47.368C31.8563 47.256 32.4323 46.832 33.1203 46.096ZM41.6773 48.736C41.2133 48.816 40.7893 48.792 40.4053 48.664C40.0213 48.52 39.7093 48.288 39.4693 47.968C39.2453 47.632 39.1333 47.208 39.1333 46.696C39.0853 46.216 39.1413 45.664 39.3013 45.04C39.4613 44.4 39.6933 43.76 39.9973 43.12C40.3173 42.48 40.6613 41.928 41.0293 41.464C41.3493 41.08 41.6693 40.728 41.9893 40.408C42.3093 40.088 42.5973 39.872 42.8533 39.76C43.0773 39.664 43.2853 39.608 43.4773 39.592C43.6853 39.56 43.8533 39.544 43.9813 39.544C44.2373 39.608 44.5093 39.728 44.7973 39.904C45.1013 40.064 45.2533 40.24 45.2533 40.432C45.2533 40.432 45.2693 40.456 45.3013 40.504C45.3493 40.536 45.3733 40.552 45.3733 40.552C45.4693 40.552 45.5493 40.656 45.6133 40.864C45.6933 41.072 45.7413 41.312 45.7573 41.584C45.7733 41.84 45.7333 42.056 45.6373 42.232C45.5733 42.536 45.4613 42.8 45.3013 43.024C45.1413 43.248 44.9973 43.36 44.8693 43.36C44.8053 43.36 44.7413 43.368 44.6773 43.384C44.6293 43.384 44.6053 43.424 44.6053 43.504C44.6053 43.584 44.5573 43.616 44.4613 43.6C44.3813 43.584 44.2933 43.536 44.1973 43.456C44.1013 43.36 44.0293 43.248 43.9813 43.12C43.9813 43.04 44.0133 42.904 44.0773 42.712C44.1413 42.52 44.2053 42.272 44.2693 41.968C44.3653 41.52 44.3573 41.232 44.2453 41.104C44.1333 40.96 43.9173 40.952 43.5973 41.08C43.1973 41.304 42.8133 41.616 42.4453 42.016C42.0933 42.416 41.7653 42.936 41.4613 43.576C41.1573 44.2 40.8853 44.984 40.6453 45.928C40.5493 46.296 40.5093 46.616 40.5253 46.888C40.5573 47.16 40.5973 47.304 40.6453 47.32C40.8693 47.384 41.1733 47.4 41.5573 47.368C41.9413 47.32 42.2213 47.248 42.3973 47.152C42.6533 47.024 42.9413 46.856 43.2613 46.648C43.5813 46.424 43.8613 46.224 44.1013 46.048C44.1813 46 44.2773 45.92 44.3893 45.808C44.5013 45.696 44.6213 45.608 44.7493 45.544C44.8773 45.352 44.9893 45.24 45.0853 45.208C45.1813 45.176 45.3253 45.16 45.5173 45.16C45.6453 45.192 45.7653 45.24 45.8773 45.304C45.9893 45.368 46.0613 45.432 46.0933 45.496C46.1413 45.56 46.1173 45.616 46.0213 45.664C45.9573 45.664 45.9173 45.688 45.9013 45.736C45.9013 45.768 45.9013 45.784 45.9013 45.784C45.9333 45.848 45.8613 45.984 45.6853 46.192C45.5253 46.384 45.3173 46.6 45.0613 46.84C44.8053 47.08 44.5573 47.288 44.3173 47.464C44.0933 47.624 43.9333 47.704 43.8373 47.704C43.6773 47.704 43.5973 47.752 43.5973 47.848C43.5973 47.88 43.4773 47.96 43.2373 48.088C43.0133 48.216 42.7493 48.344 42.4453 48.472C42.1573 48.6 41.9013 48.688 41.6773 48.736ZM49.2005 48.472C49.0405 48.36 48.9205 48.256 48.8405 48.16C48.7605 48.064 48.7285 47.928 48.7445 47.752C48.7765 47.512 48.8245 47.264 48.8885 47.008C48.9525 46.736 49.0325 46.472 49.1285 46.216C49.1765 45.928 49.2325 45.64 49.2965 45.352C49.3765 45.064 49.5045 44.792 49.6805 44.536C49.8885 43.944 50.1045 43.36 50.3285 42.784C50.5525 42.192 50.7445 41.576 50.9045 40.936C51.1445 40.36 51.3605 39.848 51.5525 39.4C51.7605 38.952 52.0085 38.376 52.2965 37.672C52.4565 37.304 52.5925 36.896 52.7045 36.448C52.8325 35.984 53.0245 35.576 53.2805 35.224C53.3925 35.08 53.4725 34.96 53.5205 34.864C53.5845 34.752 53.6485 34.648 53.7125 34.552C53.7445 34.456 53.8485 34.424 54.0245 34.456C54.2165 34.488 54.3525 34.56 54.4325 34.672C54.5125 34.656 54.6085 34.76 54.7205 34.984C54.8325 35.208 54.8725 35.384 54.8405 35.512C54.8405 35.688 54.7765 35.88 54.6485 36.088C54.5845 36.152 54.5205 36.248 54.4565 36.376C54.3925 36.488 54.2965 36.64 54.1685 36.832C54.1045 37.04 54.0405 37.248 53.9765 37.456C53.9125 37.664 53.8405 37.856 53.7605 38.032C53.6805 38.208 53.5925 38.384 53.4965 38.56C53.4005 38.736 53.3365 38.88 53.3045 38.992C53.1605 39.36 53.0005 39.72 52.8245 40.072C52.6645 40.408 52.5205 40.768 52.3925 41.152C52.2645 41.52 52.1285 41.912 51.9845 42.328C51.8565 42.728 51.6805 43.112 51.4565 43.48C51.3445 43.64 51.2565 43.856 51.1925 44.128C51.1285 44.4 51.0645 44.664 51.0005 44.92C50.8885 45.208 50.7845 45.472 50.6885 45.712C50.6085 45.952 50.5685 46.104 50.5685 46.168C50.4565 46.52 50.3685 46.872 50.3045 47.224C50.2405 47.56 50.1365 47.856 49.9925 48.112C49.9765 48.352 49.9045 48.512 49.7765 48.592C49.6645 48.672 49.4725 48.632 49.2005 48.472ZM54.9365 48.856C54.6805 48.824 54.4885 48.776 54.3605 48.712C54.2325 48.632 53.9925 48.464 53.6405 48.208C53.4485 48.016 53.1845 47.72 52.8485 47.32C52.5125 46.92 52.1765 46.496 51.8405 46.048C51.5045 45.584 51.2245 45.192 51.0005 44.872L51.9845 43.552C52.1925 43.808 52.3605 44.048 52.4885 44.272C52.6165 44.496 52.7205 44.648 52.8005 44.728C53.1685 45.272 53.4565 45.712 53.6645 46.048C53.8885 46.384 54.0885 46.656 54.2645 46.864C54.4405 47.072 54.6245 47.256 54.8165 47.416C55.0245 47.576 55.2805 47.744 55.5845 47.92C55.6325 47.952 55.6805 48 55.7285 48.064C55.7765 48.128 55.7925 48.224 55.7765 48.352C55.7125 48.528 55.6405 48.64 55.5605 48.688C55.4965 48.72 55.2885 48.776 54.9365 48.856ZM50.9285 44.608C50.8325 44.336 50.8645 44.064 51.0245 43.792C51.2005 43.504 51.3925 43.304 51.6005 43.192C51.6645 43.08 51.7285 43.008 51.7925 42.976C51.8725 42.928 51.9205 42.872 51.9365 42.808C51.9685 42.744 52.0485 42.656 52.1765 42.544C52.3205 42.432 52.4485 42.328 52.5605 42.232C52.8165 42.072 53.1045 41.88 53.4245 41.656C53.7605 41.416 54.0805 41.176 54.3845 40.936C54.6885 40.696 54.9445 40.488 55.1525 40.312C55.3765 40.136 55.5125 40.024 55.5605 39.976C55.6085 39.912 55.6725 39.872 55.7525 39.856C55.8485 39.824 55.9685 39.84 56.1125 39.904C56.3045 39.952 56.4325 40.032 56.4965 40.144C56.5605 40.24 56.5925 40.432 56.5925 40.72C56.6405 40.896 56.5685 41.088 56.3765 41.296C56.2005 41.488 55.9285 41.704 55.5605 41.944C55.4325 42.024 55.2565 42.144 55.0325 42.304C54.8245 42.464 54.6405 42.616 54.4805 42.76C54.3685 42.824 54.2005 42.936 53.9765 43.096C53.7685 43.24 53.5845 43.384 53.4245 43.528C53.2965 43.608 53.1285 43.752 52.9205 43.96C52.7125 44.152 52.5045 44.296 52.2965 44.392C51.7845 44.872 51.4485 45.128 51.2885 45.16C51.1285 45.192 51.0085 45.008 50.9285 44.608ZM61.3981 50.2C60.8701 50.12 60.5101 49.92 60.3181 49.6C60.1421 49.296 60.1021 48.824 60.1981 48.184C60.2941 47.88 60.3501 47.608 60.3661 47.368C60.3981 47.112 60.4701 46.952 60.5821 46.888C60.5821 46.888 60.5901 46.864 60.6061 46.816C60.6381 46.768 60.6301 46.72 60.5821 46.672C60.5821 46.464 60.6541 46.176 60.7981 45.808C60.8301 45.712 60.8701 45.6 60.9181 45.472C60.9821 45.328 61.0141 45.256 61.0141 45.256C60.9341 45.128 60.9341 45.024 61.0141 44.944C61.0941 44.864 61.1741 44.792 61.2541 44.728C61.3501 44.648 61.3581 44.56 61.2781 44.464C61.2461 44.4 61.2861 44.256 61.3981 44.032C61.5101 43.792 61.6381 43.544 61.7821 43.288C61.9261 43.032 62.0221 42.832 62.0701 42.688C62.0701 42.656 62.1101 42.544 62.1901 42.352C62.2701 42.16 62.3661 41.936 62.4781 41.68C62.5901 41.424 62.6941 41.192 62.7901 40.984C62.9021 40.776 62.9741 40.64 63.0061 40.576C63.1661 40.496 63.1021 40.44 62.8141 40.408C62.5261 40.376 62.2221 40.368 61.9021 40.384C61.4061 40.368 61.0061 40.344 60.7021 40.312C60.4141 40.28 60.1741 40.208 59.9821 40.096C59.7901 39.872 59.7181 39.712 59.7661 39.616C59.8301 39.504 60.0221 39.44 60.3421 39.424C60.5501 39.408 60.7101 39.4 60.8221 39.4C60.9501 39.4 61.1101 39.392 61.3021 39.376C61.5101 39.344 61.8301 39.304 62.2621 39.256L63.4861 39.16L63.5581 38.752C63.6861 38.544 63.7901 38.36 63.8701 38.2C63.9661 38.024 64.0461 37.848 64.1101 37.672C64.1741 37.496 64.2221 37.312 64.2541 37.12C64.2541 37.12 64.3261 36.992 64.4701 36.736C64.6141 36.464 64.7021 36.184 64.7341 35.896C64.9261 35.576 65.0941 35.288 65.2381 35.032C65.3821 34.76 65.4701 34.592 65.5021 34.528C65.6781 34.384 65.7981 34.312 65.8621 34.312C65.9421 34.312 66.1021 34.392 66.3421 34.552C66.4861 34.632 66.6141 34.728 66.7261 34.84C66.8381 34.952 66.9101 35.072 66.9421 35.2C66.9741 35.312 66.9261 35.424 66.7981 35.536C66.7661 35.6 66.7181 35.72 66.6541 35.896C66.5901 36.056 66.5421 36.192 66.5101 36.304C66.4141 36.416 66.2941 36.6 66.1501 36.856C66.0221 37.096 65.9341 37.344 65.8861 37.6C65.7581 37.872 65.6381 38.12 65.5261 38.344C65.4141 38.552 65.3261 38.656 65.2621 38.656C65.2941 38.816 65.3901 38.896 65.5501 38.896C65.7101 38.88 65.9741 38.864 66.3421 38.848C66.6461 38.816 66.8541 38.784 66.9661 38.752C67.0941 38.704 67.2381 38.72 67.3981 38.8C67.4781 38.912 67.5421 39.04 67.5901 39.184C67.6381 39.328 67.6461 39.464 67.6141 39.592C67.5981 39.704 67.5341 39.784 67.4221 39.832C67.3421 39.832 67.1741 39.88 66.9181 39.976C66.6781 40.056 66.3741 40.104 66.0061 40.12L64.7341 40.24L64.3261 41.056C64.2141 41.264 64.1181 41.456 64.0381 41.632C63.9581 41.792 63.9021 41.888 63.8701 41.92C63.8701 42.016 63.8141 42.16 63.7021 42.352C63.6061 42.544 63.5021 42.752 63.3901 42.976C63.2941 43.248 63.1821 43.496 63.0541 43.72C62.9421 43.944 62.8861 44.056 62.8861 44.056C62.8221 44.056 62.7901 44.104 62.7901 44.2C62.8701 44.392 62.8461 44.536 62.7181 44.632C62.6381 44.68 62.5661 44.752 62.5021 44.848C62.4541 44.928 62.4301 44.968 62.4301 44.968C62.4941 45.032 62.5021 45.112 62.4541 45.208C62.4221 45.304 62.3741 45.408 62.3101 45.52C62.3101 45.648 62.2701 45.832 62.1901 46.072C62.1261 46.312 62.0541 46.536 61.9741 46.744C61.9901 47.032 62.0061 47.216 62.0221 47.296C62.0381 47.376 62.0781 47.408 62.1421 47.392C62.2221 47.408 62.2941 47.408 62.3581 47.392C62.4221 47.376 62.4861 47.368 62.5501 47.368C62.7741 47.272 62.6541 47.832 62.1901 49.048C61.9341 49.448 61.7581 49.736 61.6621 49.912C61.5661 50.104 61.4781 50.2 61.3981 50.2ZM70.6634 48.304C70.5354 48.336 70.3674 48.352 70.1594 48.352C69.9514 48.336 69.7674 48.312 69.6074 48.28C69.4634 48.232 69.3914 48.184 69.3914 48.136C69.3914 48.056 69.3514 48.016 69.2714 48.016C69.2714 48.016 69.2314 47.984 69.1514 47.92C69.0874 47.856 68.9834 47.792 68.8394 47.728C68.6954 47.504 68.6234 47.264 68.6234 47.008C68.6234 46.736 68.6954 46.312 68.8394 45.736C68.8874 45.336 69.0394 44.872 69.2954 44.344C69.5674 43.8 69.8954 43.248 70.2794 42.688C70.6634 42.128 71.0634 41.624 71.4794 41.176C71.9114 40.728 72.3034 40.4 72.6554 40.192C72.8794 39.968 73.1514 39.848 73.4714 39.832C73.7914 39.816 74.0954 39.888 74.3834 40.048C74.5434 40.128 74.7034 40.256 74.8634 40.432C75.0234 40.608 75.1754 40.8 75.3194 41.008C75.4634 41.216 75.5834 41.424 75.6794 41.632C75.7274 41.808 75.7514 41.968 75.7514 42.112C75.7674 42.24 75.7674 42.4 75.7514 42.592C75.7514 42.784 75.7274 43.072 75.6794 43.456C75.5994 43.744 75.5274 44.096 75.4634 44.512C75.4154 44.928 75.3914 45.288 75.3914 45.592C75.3594 45.896 75.3914 46.112 75.4874 46.24C75.5994 46.368 75.7594 46.376 75.9674 46.264C76.1594 46.168 76.3434 46.128 76.5194 46.144C76.6954 46.144 76.8314 46.192 76.9274 46.288C77.0394 46.384 77.0954 46.528 77.0954 46.72C77.0954 46.912 76.9994 47.112 76.8074 47.32C76.6314 47.512 76.4074 47.68 76.1354 47.824C75.8794 47.952 75.6314 48.016 75.3914 48.016C75.2154 48.016 75.0474 47.912 74.8874 47.704C74.7274 47.48 74.5834 47.216 74.4554 46.912C74.3434 46.592 74.2394 46.288 74.1434 46L73.9994 45.448L72.9674 46.432C72.7594 46.656 72.5514 46.864 72.3434 47.056C72.1514 47.232 72.0314 47.36 71.9834 47.44C71.9034 47.584 71.7514 47.728 71.5274 47.872C71.3194 48.016 71.0314 48.16 70.6634 48.304ZM70.7354 46.888C71.0074 46.728 71.3194 46.496 71.6714 46.192C72.0234 45.872 72.3674 45.528 72.7034 45.16C73.0394 44.776 73.3194 44.424 73.5434 44.104C73.8154 43.736 74.0234 43.392 74.1674 43.072C74.3114 42.752 74.4154 42.448 74.4794 42.16C74.4154 41.984 74.3114 41.8 74.1674 41.608C74.0234 41.4 73.8954 41.288 73.7834 41.272C73.4314 41.272 73.0554 41.496 72.6554 41.944C72.2714 42.376 71.8954 42.848 71.5274 43.36C71.4634 43.44 71.3754 43.568 71.2634 43.744C71.1514 43.92 71.0394 44.088 70.9274 44.248C70.8314 44.392 70.7674 44.488 70.7354 44.536C70.6874 44.6 70.5914 44.784 70.4474 45.088C70.3194 45.376 70.1914 45.672 70.0634 45.976C69.9354 46.264 69.8714 46.456 69.8714 46.552C69.8714 46.648 69.8794 46.752 69.8954 46.864C69.9274 46.976 70.0074 47.048 70.1354 47.08C70.2634 47.112 70.4634 47.048 70.7354 46.888ZM80.1522 47.824C80.0882 47.824 80.0082 47.808 79.9122 47.776C79.8322 47.728 79.7922 47.704 79.7922 47.704C79.7922 47.64 79.7682 47.56 79.7202 47.464C79.6882 47.368 79.6722 47.288 79.6722 47.224C79.5602 47.16 79.4962 47.096 79.4802 47.032C79.4642 46.952 79.4882 46.824 79.5522 46.648C79.6482 46.488 79.7762 46.232 79.9362 45.88C80.0962 45.512 80.2642 45.12 80.4402 44.704C80.6162 44.272 80.7842 43.848 80.9442 43.432C81.1042 43.016 81.2402 42.664 81.3522 42.376C81.4642 42.072 81.5282 41.888 81.5442 41.824C81.5442 41.76 81.5682 41.68 81.6162 41.584C81.6642 41.488 81.7202 41.408 81.7842 41.344C81.9122 41.232 82.0482 41.224 82.1922 41.32C82.3362 41.4 82.4562 41.544 82.5522 41.752C82.6642 41.944 82.7202 42.16 82.7202 42.4C82.7202 42.512 82.6402 42.8 82.4802 43.264C82.3202 43.712 82.1042 44.248 81.8322 44.872C81.5762 45.496 81.2882 46.128 80.9682 46.768C80.7282 47.232 80.5762 47.528 80.5122 47.656C80.4482 47.768 80.3282 47.824 80.1522 47.824ZM83.6802 38.728C83.4882 38.728 83.2802 38.656 83.0562 38.512C82.8482 38.352 82.6642 38.16 82.5042 37.936C82.3602 37.696 82.2882 37.456 82.2882 37.216C82.2882 37.136 82.3362 37.024 82.4322 36.88C82.5282 36.736 82.6242 36.592 82.7202 36.448C82.8162 36.304 82.8642 36.216 82.8642 36.184C82.9922 36.184 83.0882 36.192 83.1522 36.208C83.2322 36.208 83.3282 36.24 83.4402 36.304C83.6162 36.704 83.8322 37.032 84.0882 37.288C84.3602 37.544 84.4962 37.76 84.4962 37.936C84.4962 38.288 84.4642 38.512 84.4002 38.608C84.3362 38.688 84.0962 38.728 83.6802 38.728ZM86.3328 49C86.0288 49.08 85.7808 49.016 85.5888 48.808C85.4128 48.6 85.3088 48.28 85.2768 47.848C85.2448 47.416 85.2928 46.904 85.4208 46.312C85.5008 46.12 85.5648 45.936 85.6128 45.76C85.6608 45.568 85.6848 45.416 85.6848 45.304C85.7168 45.144 85.7808 44.912 85.8768 44.608C85.9728 44.288 86.0768 43.96 86.1888 43.624C86.3008 43.288 86.4048 42.992 86.5008 42.736C86.6128 42.464 86.6848 42.296 86.7168 42.232C86.7808 42.232 86.8368 42.176 86.8848 42.064C86.9328 41.952 86.9568 41.84 86.9568 41.728C86.9568 41.6 86.9808 41.456 87.0288 41.296C87.0928 41.136 87.1568 41.024 87.2208 40.96C87.2208 40.88 87.2368 40.792 87.2688 40.696C87.3168 40.584 87.3408 40.496 87.3408 40.432C87.3408 40.368 87.3568 40.304 87.3888 40.24C87.4368 40.176 87.4608 40.112 87.4608 40.048C87.5728 39.84 87.7168 39.512 87.8928 39.064C88.0848 38.6 88.2848 38.088 88.4928 37.528C88.7168 36.968 88.9248 36.416 89.1168 35.872C89.3088 35.328 89.4608 34.872 89.5728 34.504C89.7008 34.12 89.7648 33.888 89.7648 33.808C89.7648 33.68 89.7968 33.584 89.8608 33.52C89.9248 33.456 90.0208 33.424 90.1488 33.424C90.1968 33.376 90.2528 33.344 90.3168 33.328C90.3968 33.312 90.4688 33.304 90.5328 33.304C90.5328 33.304 90.5648 33.336 90.6288 33.4C90.6928 33.464 90.7888 33.56 90.9168 33.688C91.0448 33.8 91.1168 33.928 91.1328 34.072C91.1648 34.216 91.1808 34.384 91.1808 34.576C91.1808 34.784 91.1568 34.968 91.1088 35.128C91.0608 35.288 90.9648 35.52 90.8208 35.824C90.6768 36.128 90.4528 36.6 90.1488 37.24C90.0208 37.56 89.8848 37.864 89.7408 38.152C89.5968 38.424 89.5248 38.592 89.5248 38.656C89.5248 38.72 89.4928 38.816 89.4288 38.944C89.3808 39.072 89.3248 39.232 89.2608 39.424C89.1968 39.552 89.1088 39.744 88.9968 40C88.8848 40.24 88.7648 40.504 88.6368 40.792C88.5248 41.064 88.4288 41.304 88.3488 41.512C88.2688 41.704 88.2288 41.816 88.2288 41.848C88.2288 41.912 88.2208 41.976 88.2048 42.04C88.2048 42.104 88.1728 42.168 88.1088 42.232C88.0448 42.232 88.0048 42.28 87.9888 42.376C87.9888 42.456 87.9888 42.496 87.9888 42.496C87.9888 42.656 87.8608 43.08 87.6048 43.768C87.3488 44.648 87.1088 45.456 86.8848 46.192C86.6768 46.928 86.5728 47.52 86.5728 47.968C86.5728 48.352 86.5648 48.608 86.5488 48.736C86.5328 48.848 86.4608 48.936 86.3328 49ZM101.096 50.344C100.856 50.248 100.608 50.144 100.352 50.032C100.112 49.92 99.88 49.752 99.656 49.528C99.448 49.32 99.264 49.024 99.104 48.64C98.944 48.176 98.832 47.72 98.768 47.272C98.72 46.824 98.704 46.304 98.72 45.712C98.72 44.88 98.776 44.16 98.888 43.552C99.016 42.928 99.208 42.296 99.464 41.656C99.496 41.608 99.552 41.472 99.632 41.248C99.728 41.008 99.832 40.752 99.944 40.48C100.072 40.208 100.168 40 100.232 39.856C100.36 39.584 100.552 39.224 100.808 38.776C101.08 38.312 101.368 37.864 101.672 37.432C102.136 36.744 102.52 36.2 102.824 35.8C103.128 35.4 103.416 35.064 103.688 34.792C103.96 34.52 104.264 34.264 104.6 34.024C104.952 33.768 105.4 33.456 105.944 33.088C106.296 32.832 106.68 32.696 107.096 32.68C107.528 32.664 107.928 32.76 108.296 32.968C108.664 33.16 108.936 33.448 109.112 33.832C109.288 34.168 109.376 34.576 109.376 35.056C109.376 35.52 109.304 36.016 109.16 36.544C109.016 37.056 108.816 37.544 108.56 38.008C108.304 38.472 108.008 38.856 107.672 39.16C107.464 39.352 107.272 39.424 107.096 39.376C106.936 39.328 106.744 39.2 106.52 38.992C106.376 38.72 106.296 38.56 106.28 38.512C106.28 38.464 106.312 38.432 106.376 38.416C106.472 38.304 106.6 38.112 106.76 37.84C106.92 37.568 107.08 37.28 107.24 36.976C107.4 36.656 107.512 36.4 107.576 36.208C107.704 35.536 107.792 35.064 107.84 34.792C107.888 34.504 107.84 34.288 107.696 34.144C107.632 34.08 107.536 34.056 107.408 34.072C107.296 34.088 107.104 34.168 106.832 34.312C106.464 34.472 105.984 34.832 105.392 35.392C104.8 35.936 104.256 36.544 103.76 37.216C103.12 38.064 102.584 38.816 102.152 39.472C101.72 40.128 101.392 40.8 101.168 41.488C101.136 41.552 101.08 41.672 101 41.848C100.936 42.024 100.904 42.112 100.904 42.112C100.92 42.176 100.896 42.336 100.832 42.592C100.768 42.832 100.696 43.04 100.616 43.216C100.44 43.952 100.336 44.72 100.304 45.52C100.272 46.304 100.312 47 100.424 47.608C100.552 48.216 100.736 48.64 100.976 48.88C101.184 49.024 101.464 49.072 101.816 49.024C102.184 48.976 102.6 48.864 103.064 48.688C103.528 48.512 104 48.32 104.48 48.112C104.864 47.952 105.216 47.776 105.536 47.584C105.856 47.392 106.096 47.224 106.256 47.08C106.384 46.984 106.544 46.888 106.736 46.792C106.944 46.68 107.12 46.624 107.264 46.624C107.488 46.544 107.616 46.512 107.648 46.528C107.68 46.544 107.696 46.616 107.696 46.744C107.696 46.968 107.568 47.216 107.312 47.488C107.072 47.76 106.76 48.008 106.376 48.232C106.248 48.36 106.08 48.496 105.872 48.64C105.664 48.784 105.448 48.896 105.224 48.976C104.888 49.232 104.472 49.48 103.976 49.72C103.48 49.96 102.976 50.144 102.464 50.272C101.968 50.4 101.512 50.424 101.096 50.344ZM111.504 47.872C111.344 47.776 111.224 47.68 111.144 47.584C111.064 47.488 111.024 47.352 111.024 47.176C111.024 46.936 111.056 46.688 111.12 46.432C111.184 46.16 111.248 45.896 111.312 45.64C111.344 45.352 111.384 45.064 111.432 44.776C111.496 44.472 111.608 44.192 111.768 43.936C111.944 43.328 112.128 42.728 112.32 42.136C112.512 41.528 112.68 40.904 112.824 40.264C113.032 39.672 113.216 39.152 113.376 38.704C113.552 38.24 113.768 37.656 114.024 36.952C114.168 36.552 114.288 36.128 114.384 35.68C114.496 35.216 114.664 34.8 114.888 34.432C114.984 34.288 115.056 34.168 115.104 34.072C115.168 33.96 115.232 33.856 115.296 33.76C115.312 33.696 115.36 33.656 115.44 33.64C115.536 33.624 115.64 33.632 115.752 33.664C115.864 33.696 115.952 33.752 116.016 33.832C116.064 33.816 116.12 33.864 116.184 33.976C116.264 34.072 116.336 34.184 116.4 34.312C116.464 34.44 116.488 34.552 116.472 34.648C116.472 34.712 116.456 34.8 116.424 34.912C116.408 35.024 116.368 35.128 116.304 35.224C116.24 35.288 116.176 35.384 116.112 35.512C116.064 35.624 115.984 35.784 115.872 35.992C115.808 36.2 115.752 36.416 115.704 36.64C115.656 36.848 115.592 37.04 115.512 37.216C115.448 37.408 115.368 37.592 115.272 37.768C115.192 37.944 115.136 38.088 115.104 38.2C114.992 38.568 114.856 38.928 114.696 39.28C114.552 39.632 114.424 40.008 114.312 40.408C114.2 40.792 114.088 41.192 113.976 41.608C113.864 42.008 113.704 42.392 113.496 42.76C113.384 42.936 113.304 43.16 113.256 43.432C113.208 43.704 113.16 43.976 113.112 44.248C113.016 44.536 112.928 44.808 112.848 45.064C112.784 45.304 112.752 45.456 112.752 45.52C112.656 45.872 112.584 46.224 112.536 46.576C112.504 46.912 112.424 47.208 112.296 47.464C112.28 47.624 112.248 47.752 112.2 47.848C112.152 47.944 112.072 48 111.96 48.016C111.848 48.016 111.696 47.968 111.504 47.872ZM122.351 48.952C122.191 48.792 122.031 48.576 121.871 48.304C121.711 48.016 121.583 47.688 121.487 47.32C121.455 47.192 121.439 47.016 121.439 46.792C121.455 46.568 121.455 46.408 121.439 46.312C121.391 46.424 121.311 46.544 121.199 46.672C121.103 46.784 121.007 46.88 120.911 46.96C120.847 47.024 120.703 47.152 120.479 47.344C120.255 47.52 120.031 47.664 119.807 47.776C119.279 48.112 118.839 48.296 118.487 48.328C118.151 48.36 117.831 48.184 117.527 47.8C117.271 47.592 117.087 47.36 116.975 47.104C116.879 46.848 116.879 46.496 116.975 46.048C117.007 45.488 117.087 44.944 117.215 44.416C117.343 43.872 117.607 43.152 118.007 42.256C118.343 41.6 118.599 41.12 118.775 40.816C118.951 40.496 119.063 40.304 119.111 40.24C119.351 40.16 119.551 40.168 119.711 40.264C119.871 40.344 119.967 40.496 119.999 40.72C120.095 40.88 120.079 41.152 119.951 41.536C119.839 41.92 119.639 42.392 119.351 42.952C119.127 43.496 118.919 44.04 118.727 44.584C118.551 45.128 118.447 45.592 118.415 45.976C118.383 46.36 118.479 46.592 118.703 46.672C118.847 46.752 119.095 46.728 119.447 46.6C119.815 46.472 120.223 46.152 120.671 45.64C121.135 45.128 121.583 44.352 122.015 43.312C122.143 42.992 122.239 42.712 122.303 42.472C122.367 42.216 122.407 41.936 122.423 41.632C122.391 41.44 122.399 41.272 122.447 41.128C122.511 40.968 122.639 40.832 122.831 40.72C122.895 40.64 122.983 40.568 123.095 40.504C123.207 40.424 123.279 40.424 123.311 40.504L123.695 40.48C123.759 40.464 123.799 40.504 123.815 40.6C123.847 40.68 123.903 40.752 123.983 40.816C124.159 40.96 124.207 41.272 124.127 41.752C124.047 42.232 123.823 42.904 123.455 43.768C123.151 44.424 122.943 44.92 122.831 45.256C122.735 45.592 122.679 45.92 122.663 46.24C122.663 46.528 122.719 46.8 122.831 47.056C122.943 47.312 123.119 47.544 123.359 47.752C123.535 47.864 123.631 47.992 123.647 48.136C123.679 48.28 123.687 48.448 123.671 48.64C123.639 48.784 123.543 48.904 123.383 49C123.239 49.08 123.071 49.12 122.879 49.12C122.687 49.12 122.511 49.064 122.351 48.952ZM128.138 47.776C128.138 47.648 128.122 47.528 128.09 47.416C128.058 47.304 128.074 47.216 128.138 47.152L128.33 47.2C128.266 47.216 128.17 47.224 128.042 47.224C127.914 47.208 127.794 47.184 127.682 47.152C127.586 47.104 127.53 47.064 127.514 47.032C127.53 46.76 127.546 46.552 127.562 46.408C127.594 46.264 127.634 46.144 127.682 46.048C127.682 45.904 127.73 45.72 127.826 45.496C127.922 45.272 128.002 45.04 128.066 44.8C128.13 44.528 128.21 44.12 128.306 43.576C128.418 43.032 128.578 42.512 128.786 42.016C128.914 41.6 129.074 41.08 129.266 40.456C129.458 39.816 129.642 39.288 129.818 38.872C130.01 38.136 130.186 37.544 130.346 37.096C130.522 36.632 130.698 36.216 130.874 35.848C131.066 35.464 131.274 35.032 131.498 34.552C131.562 34.424 131.626 34.264 131.69 34.072C131.754 33.864 131.81 33.688 131.858 33.544C131.89 33.416 132.01 33.328 132.218 33.28C132.442 33.216 132.65 33.28 132.842 33.472C133.018 33.648 133.114 33.8 133.13 33.928C133.146 34.056 133.09 34.272 132.962 34.576C132.85 34.864 132.658 35.344 132.386 36.016C132.274 36.176 132.146 36.448 132.002 36.832C131.874 37.2 131.754 37.528 131.642 37.816C131.402 38.376 131.21 38.856 131.066 39.256C130.922 39.656 130.786 40.064 130.658 40.48C130.546 40.928 130.41 41.432 130.25 41.992C130.106 42.552 129.954 43.08 129.794 43.576L129.41 43.696C129.522 43.552 129.658 43.384 129.818 43.192C129.994 43 130.154 42.824 130.298 42.664C130.458 42.504 130.562 42.4 130.61 42.352C131.042 41.984 131.522 41.648 132.05 41.344C132.578 41.024 133.074 40.784 133.538 40.624C134.018 40.464 134.378 40.432 134.618 40.528C134.81 40.592 135.05 40.76 135.338 41.032C135.626 41.304 135.794 41.56 135.842 41.8C135.97 42.056 135.994 42.36 135.914 42.712C135.834 43.048 135.642 43.496 135.338 44.056C135.066 44.552 134.754 45.032 134.402 45.496C134.05 45.944 133.714 46.32 133.394 46.624C133.282 46.688 133.138 46.8 132.962 46.96C132.802 47.104 132.658 47.248 132.53 47.392C132.194 47.696 131.794 47.936 131.33 48.112C130.882 48.288 130.434 48.4 129.986 48.448C129.538 48.48 129.146 48.44 128.81 48.328C128.474 48.216 128.25 48.032 128.138 47.776ZM128.498 47.128C128.578 47.144 128.658 47.16 128.738 47.176C128.818 47.176 128.906 47.176 129.002 47.176C129.354 47.128 129.65 47.08 129.89 47.032C130.146 46.968 130.394 46.888 130.634 46.792C130.874 46.68 131.138 46.536 131.426 46.36C131.842 46.04 132.218 45.728 132.554 45.424C132.906 45.104 133.234 44.752 133.538 44.368C133.81 44.016 134.05 43.6 134.258 43.12C134.482 42.64 134.594 42.264 134.594 41.992C134.594 41.848 134.554 41.776 134.474 41.776C134.442 41.776 134.298 41.824 134.042 41.92C133.786 42 133.522 42.104 133.25 42.232C132.994 42.344 132.826 42.44 132.746 42.52C132.746 42.584 132.698 42.64 132.602 42.688C132.506 42.72 132.458 42.736 132.458 42.736C131.962 43.104 131.57 43.424 131.282 43.696C130.994 43.952 130.754 44.2 130.562 44.44C130.45 44.6 130.354 44.736 130.274 44.848C130.194 44.944 130.114 45.048 130.034 45.16C129.97 45.272 129.874 45.416 129.746 45.592C129.634 45.768 129.482 46.008 129.29 46.312C129.178 46.52 129.034 46.72 128.858 46.912C128.698 47.104 128.578 47.216 128.498 47.248V47.128Z" fill="white"/>
<path d="M0.528 25V24.76L1.08 24.544C1.352 24.432 1.536 24.288 1.632 24.112C1.744 23.92 1.8 23.664 1.8 23.344V10.816C1.8 10.496 1.752 10.248 1.656 10.072C1.576 9.88 1.384 9.728 1.08 9.616L0.528 9.4V9.16H12.024L12.168 12.856H11.928L10.896 10.6C10.752 10.312 10.6 10.08 10.44 9.904C10.28 9.728 10.04 9.64 9.72 9.64H5.4V16.576H7.968C8.288 16.576 8.528 16.496 8.688 16.336C8.864 16.16 9.016 15.928 9.144 15.64L9.624 14.68H9.864V19H9.624L9.144 17.992C9 17.704 8.848 17.48 8.688 17.32C8.528 17.144 8.288 17.056 7.968 17.056H5.4V24.52H10.248C10.568 24.52 10.816 24.44 10.992 24.28C11.168 24.104 11.312 23.864 11.424 23.56L12.408 21.304H12.648L12.504 25H0.528ZM13.8405 25V24.76L14.1525 24.688C14.4565 24.592 14.6965 24.448 14.8725 24.256C15.0485 24.064 15.1365 23.808 15.1365 23.488C15.1365 22.896 15.1365 22.312 15.1365 21.736C15.1525 21.144 15.1605 20.552 15.1605 19.96V13.936H13.8165V13.672L14.3445 13.576C14.6805 13.528 14.9125 13.416 15.0405 13.24C15.1685 13.048 15.2725 12.784 15.3525 12.448C15.5125 11.824 15.7445 11.28 16.0485 10.816C16.3685 10.336 16.7285 9.896 17.1285 9.496C17.7365 8.92 18.3765 8.52 19.0485 8.296C19.7365 8.056 20.4085 7.936 21.0645 7.936C21.4805 7.936 21.8805 8 22.2645 8.128C22.6645 8.24 22.9845 8.424 23.2245 8.68C23.4805 8.92 23.6085 9.24 23.6085 9.64C23.6085 10.072 23.4805 10.416 23.2245 10.672C22.9845 10.912 22.6245 11.032 22.1445 11.032C21.7605 11.032 21.4085 10.928 21.0885 10.72C20.7685 10.512 20.4565 10.144 20.1525 9.616L19.8165 9.208C19.6405 8.968 19.4565 8.856 19.2645 8.872C19.0885 8.888 18.9685 9.024 18.9045 9.28C18.7925 9.856 18.7045 10.52 18.6405 11.272C18.5925 12.008 18.5685 12.736 18.5685 13.456H22.5765C22.9125 13.456 23.1445 13.368 23.2725 13.192C23.4005 13 23.5045 12.752 23.5845 12.448C23.7445 11.824 23.9765 11.28 24.2805 10.816C24.6005 10.336 24.9605 9.896 25.3605 9.496C25.9685 8.92 26.6085 8.52 27.2805 8.296C27.9685 8.056 28.6405 7.936 29.2965 7.936C29.7285 7.936 30.1365 8 30.5205 8.128C30.9045 8.24 31.2245 8.424 31.4805 8.68C31.7365 8.92 31.8645 9.24 31.8645 9.64C31.8645 10.072 31.7365 10.416 31.4805 10.672C31.2245 10.912 30.8565 11.032 30.3765 11.032C29.9925 11.032 29.6405 10.928 29.3205 10.72C29.0005 10.512 28.6885 10.144 28.3845 9.616L28.0485 9.208C27.8725 8.968 27.6965 8.856 27.5205 8.872C27.3445 8.888 27.2165 9.024 27.1365 9.28C27.0245 9.856 26.9365 10.52 26.8725 11.272C26.8245 12.008 26.8005 12.736 26.8005 13.456H29.4885V13.936H26.8005V19.96C26.8005 20.536 26.8005 21.12 26.8005 21.712C26.8005 22.288 26.8005 22.864 26.8005 23.44C26.8165 24.048 27.1445 24.44 27.7845 24.616L28.3845 24.76V25H22.0725V24.76L22.3845 24.688C22.6885 24.592 22.9285 24.448 23.1045 24.256C23.2805 24.064 23.3765 23.808 23.3925 23.488C23.3925 22.896 23.3925 22.312 23.3925 21.736C23.3925 21.144 23.3925 20.552 23.3925 19.96V13.936H18.5685V19.96C18.5685 20.536 18.5685 21.12 18.5685 21.712C18.5685 22.288 18.5685 22.864 18.5685 23.44C18.5845 24.048 18.9045 24.44 19.5285 24.616L20.1285 24.76V25H13.8405ZM36.0118 13.096C37.0518 13.096 37.9398 13.312 38.6758 13.744C39.4118 14.16 39.9718 14.736 40.3558 15.472C40.7558 16.192 40.9558 17.016 40.9558 17.944C40.9558 18.12 40.9478 18.304 40.9318 18.496C40.9158 18.672 40.8838 18.832 40.8358 18.976H33.6838C33.6998 20.704 34.0038 21.952 34.5958 22.72C35.2038 23.472 36.0998 23.848 37.2838 23.848C38.0838 23.848 38.7318 23.72 39.2278 23.464C39.7238 23.208 40.1878 22.832 40.6198 22.336L40.8598 22.552C40.3638 23.432 39.6998 24.12 38.8678 24.616C38.0518 25.112 37.0678 25.36 35.9158 25.36C34.7798 25.36 33.7718 25.12 32.8918 24.64C32.0118 24.144 31.3238 23.44 30.8278 22.528C30.3318 21.616 30.0838 20.528 30.0838 19.264C30.0838 17.952 30.3718 16.84 30.9478 15.928C31.5238 15 32.2598 14.296 33.1558 13.816C34.0678 13.336 35.0198 13.096 36.0118 13.096ZM35.9398 13.576C35.4758 13.576 35.0758 13.72 34.7398 14.008C34.4198 14.28 34.1638 14.776 33.9718 15.496C33.7958 16.2 33.6998 17.2 33.6838 18.496H37.7878C37.9478 16.752 37.8838 15.496 37.5958 14.728C37.3078 13.96 36.7558 13.576 35.9398 13.576ZM42.1519 25V24.76L42.5119 24.664C42.8319 24.568 43.0479 24.424 43.1599 24.232C43.2879 24.04 43.3519 23.792 43.3519 23.488V15.976C43.3519 15.624 43.2879 15.368 43.1599 15.208C43.0479 15.032 42.8319 14.912 42.5119 14.848L42.1519 14.752V14.512L46.2799 13.12L46.5199 13.36L46.7359 15.424V15.616C46.9599 15.168 47.2479 14.76 47.5999 14.392C47.9679 14.008 48.3679 13.696 48.7999 13.456C49.2479 13.216 49.6879 13.096 50.1199 13.096C50.7279 13.096 51.1919 13.264 51.5119 13.6C51.8319 13.936 51.9919 14.36 51.9919 14.872C51.9919 15.416 51.8319 15.84 51.5119 16.144C51.2079 16.432 50.8399 16.576 50.4079 16.576C49.7359 16.576 49.1439 16.24 48.6319 15.568L48.5839 15.52C48.4239 15.296 48.2399 15.176 48.0319 15.16C47.8239 15.128 47.6319 15.224 47.4559 15.448C47.2959 15.592 47.1599 15.768 47.0479 15.976C46.9519 16.168 46.8559 16.392 46.7599 16.648V23.344C46.7599 23.984 47.0399 24.384 47.5999 24.544L48.3679 24.76V25H42.1519ZM58.4966 25.072L54.2486 14.872C54.0246 14.328 53.6406 13.968 53.0966 13.792L52.7606 13.696V13.456H58.9766V13.696L58.5446 13.792C57.9206 13.952 57.7286 14.368 57.9686 15.04L60.4886 21.736L62.8406 15.088C62.9686 14.768 63.0006 14.504 62.9366 14.296C62.8726 14.088 62.6806 13.936 62.3606 13.84L61.7606 13.696V13.456H65.2406V13.696L64.5446 13.864C64.2406 13.944 64.0006 14.064 63.8246 14.224C63.6646 14.384 63.5286 14.624 63.4166 14.944L59.8886 25.072H58.4966ZM71.2384 13.096C72.2784 13.096 73.1664 13.312 73.9024 13.744C74.6384 14.16 75.1984 14.736 75.5824 15.472C75.9824 16.192 76.1824 17.016 76.1824 17.944C76.1824 18.12 76.1744 18.304 76.1584 18.496C76.1424 18.672 76.1104 18.832 76.0624 18.976H68.9104C68.9264 20.704 69.2304 21.952 69.8224 22.72C70.4304 23.472 71.3264 23.848 72.5104 23.848C73.3104 23.848 73.9584 23.72 74.4544 23.464C74.9504 23.208 75.4144 22.832 75.8464 22.336L76.0864 22.552C75.5904 23.432 74.9264 24.12 74.0944 24.616C73.2784 25.112 72.2944 25.36 71.1424 25.36C70.0064 25.36 68.9984 25.12 68.1184 24.64C67.2384 24.144 66.5504 23.44 66.0544 22.528C65.5584 21.616 65.3104 20.528 65.3104 19.264C65.3104 17.952 65.5984 16.84 66.1744 15.928C66.7504 15 67.4864 14.296 68.3824 13.816C69.2944 13.336 70.2464 13.096 71.2384 13.096ZM71.1664 13.576C70.7024 13.576 70.3024 13.72 69.9664 14.008C69.6464 14.28 69.3904 14.776 69.1984 15.496C69.0224 16.2 68.9264 17.2 68.9104 18.496H73.0144C73.1744 16.752 73.1104 15.496 72.8224 14.728C72.5344 13.96 71.9824 13.576 71.1664 13.576ZM81.5304 25.36C80.7464 25.36 80.0424 25.264 79.4184 25.072C78.7944 24.896 78.2184 24.672 77.6904 24.4L77.7144 21.544H77.9544L78.7704 22.984C79.1224 23.624 79.5064 24.104 79.9224 24.424C80.3544 24.728 80.8984 24.88 81.5544 24.88C82.3224 24.88 82.9384 24.712 83.4024 24.376C83.8824 24.024 84.1224 23.56 84.1224 22.984C84.1224 22.456 83.9544 22.024 83.6184 21.688C83.2824 21.352 82.6584 21.048 81.7464 20.776L80.7384 20.464C79.7624 20.176 78.9944 19.728 78.4344 19.12C77.8744 18.512 77.5944 17.768 77.5944 16.888C77.5944 15.832 78.0104 14.936 78.8424 14.2C79.6744 13.464 80.8664 13.096 82.4184 13.096C83.0424 13.096 83.6264 13.168 84.1704 13.312C84.7304 13.44 85.2664 13.64 85.7784 13.912L85.6344 16.504H85.3944L84.5544 15.016C84.2504 14.488 83.9464 14.12 83.6424 13.912C83.3544 13.688 82.9144 13.576 82.3224 13.576C81.7784 13.576 81.2664 13.728 80.7864 14.032C80.3064 14.336 80.0664 14.768 80.0664 15.328C80.0664 15.872 80.2664 16.304 80.6664 16.624C81.0824 16.944 81.6904 17.24 82.4904 17.512L83.5704 17.824C84.7224 18.176 85.5464 18.664 86.0424 19.288C86.5384 19.896 86.7864 20.632 86.7864 21.496C86.7864 22.664 86.3224 23.6 85.3944 24.304C84.4824 25.008 83.1944 25.36 81.5304 25.36ZM93.7836 25.36C92.6956 25.36 91.7036 25.128 90.8076 24.664C89.9276 24.184 89.2236 23.496 88.6956 22.6C88.1836 21.688 87.9276 20.576 87.9276 19.264C87.9276 17.968 88.2076 16.864 88.7676 15.952C89.3436 15.024 90.1036 14.32 91.0476 13.84C92.0076 13.344 93.0556 13.096 94.1916 13.096C95.1196 13.096 95.9036 13.248 96.5436 13.552C97.1836 13.856 97.6716 14.256 98.0076 14.752C98.3436 15.232 98.5116 15.736 98.5116 16.264C98.5116 16.712 98.3756 17.064 98.1036 17.32C97.8316 17.56 97.4796 17.68 97.0476 17.68C96.5836 17.68 96.2076 17.512 95.9196 17.176C95.6316 16.84 95.4636 16.4 95.4156 15.856C95.3996 15.504 95.4076 15.208 95.4396 14.968C95.4716 14.712 95.4716 14.456 95.4396 14.2C95.3756 13.928 95.2716 13.752 95.1276 13.672C94.9996 13.576 94.8156 13.528 94.5756 13.528C93.5996 13.528 92.8396 13.952 92.2956 14.8C91.7676 15.648 91.5036 17 91.5036 18.856C91.5036 20.472 91.7996 21.712 92.3916 22.576C92.9996 23.424 93.9276 23.848 95.1756 23.848C95.9276 23.848 96.5356 23.712 96.9996 23.44C97.4636 23.168 97.9116 22.76 98.3436 22.216L98.5836 22.408C98.1836 23.352 97.5676 24.08 96.7356 24.592C95.9036 25.104 94.9196 25.36 93.7836 25.36ZM105.574 13.096C106.614 13.096 107.502 13.312 108.238 13.744C108.974 14.16 109.534 14.736 109.918 15.472C110.318 16.192 110.518 17.016 110.518 17.944C110.518 18.12 110.51 18.304 110.494 18.496C110.478 18.672 110.446 18.832 110.398 18.976H103.246C103.262 20.704 103.566 21.952 104.158 22.72C104.766 23.472 105.662 23.848 106.846 23.848C107.646 23.848 108.294 23.72 108.79 23.464C109.286 23.208 109.75 22.832 110.182 22.336L110.422 22.552C109.926 23.432 109.262 24.12 108.43 24.616C107.614 25.112 106.63 25.36 105.478 25.36C104.342 25.36 103.334 25.12 102.454 24.64C101.574 24.144 100.886 23.44 100.39 22.528C99.8943 21.616 99.6463 20.528 99.6463 19.264C99.6463 17.952 99.9343 16.84 100.51 15.928C101.086 15 101.822 14.296 102.718 13.816C103.63 13.336 104.582 13.096 105.574 13.096ZM105.502 13.576C105.038 13.576 104.638 13.72 104.302 14.008C103.982 14.28 103.726 14.776 103.534 15.496C103.358 16.2 103.262 17.2 103.246 18.496H107.35C107.51 16.752 107.446 15.496 107.158 14.728C106.87 13.96 106.318 13.576 105.502 13.576ZM111.714 25V24.76L112.05 24.664C112.61 24.504 112.89 24.112 112.89 23.488V15.976C112.89 15.624 112.834 15.368 112.722 15.208C112.61 15.032 112.394 14.912 112.074 14.848L111.714 14.752V14.512L115.818 13.12L116.058 13.36L116.25 14.8C116.81 14.304 117.442 13.896 118.146 13.576C118.85 13.256 119.546 13.096 120.234 13.096C121.29 13.096 122.098 13.384 122.658 13.96C123.234 14.536 123.522 15.416 123.522 16.6V23.512C123.522 24.136 123.826 24.528 124.434 24.688L124.65 24.76V25H118.986V24.76L119.298 24.664C119.858 24.488 120.138 24.096 120.138 23.488V15.832C120.138 14.808 119.626 14.296 118.602 14.296C117.898 14.296 117.13 14.648 116.298 15.352V23.512C116.298 24.136 116.578 24.528 117.138 24.688L117.354 24.76V25H111.714ZM131.541 25.36C130.453 25.36 129.461 25.128 128.565 24.664C127.685 24.184 126.981 23.496 126.453 22.6C125.941 21.688 125.685 20.576 125.685 19.264C125.685 17.968 125.965 16.864 126.525 15.952C127.101 15.024 127.861 14.32 128.805 13.84C129.765 13.344 130.813 13.096 131.949 13.096C132.877 13.096 133.661 13.248 134.301 13.552C134.941 13.856 135.429 14.256 135.765 14.752C136.101 15.232 136.269 15.736 136.269 16.264C136.269 16.712 136.133 17.064 135.861 17.32C135.589 17.56 135.237 17.68 134.805 17.68C134.341 17.68 133.965 17.512 133.677 17.176C133.389 16.84 133.221 16.4 133.173 15.856C133.157 15.504 133.165 15.208 133.197 14.968C133.229 14.712 133.229 14.456 133.197 14.2C133.133 13.928 133.029 13.752 132.885 13.672C132.757 13.576 132.573 13.528 132.333 13.528C131.357 13.528 130.597 13.952 130.053 14.8C129.525 15.648 129.261 17 129.261 18.856C129.261 20.472 129.557 21.712 130.149 22.576C130.757 23.424 131.685 23.848 132.933 23.848C133.685 23.848 134.293 23.712 134.757 23.44C135.221 23.168 135.669 22.76 136.101 22.216L136.341 22.408C135.941 23.352 135.325 24.08 134.493 24.592C133.661 25.104 132.677 25.36 131.541 25.36ZM143.332 13.096C144.372 13.096 145.26 13.312 145.996 13.744C146.732 14.16 147.292 14.736 147.676 15.472C148.076 16.192 148.276 17.016 148.276 17.944C148.276 18.12 148.268 18.304 148.252 18.496C148.236 18.672 148.204 18.832 148.156 18.976H141.004C141.02 20.704 141.324 21.952 141.916 22.72C142.524 23.472 143.42 23.848 144.604 23.848C145.404 23.848 146.052 23.72 146.548 23.464C147.044 23.208 147.508 22.832 147.94 22.336L148.18 22.552C147.684 23.432 147.02 24.12 146.188 24.616C145.372 25.112 144.388 25.36 143.236 25.36C142.1 25.36 141.092 25.12 140.212 24.64C139.332 24.144 138.644 23.44 138.148 22.528C137.652 21.616 137.404 20.528 137.404 19.264C137.404 17.952 137.692 16.84 138.268 15.928C138.844 15 139.58 14.296 140.476 13.816C141.388 13.336 142.34 13.096 143.332 13.096ZM143.26 13.576C142.796 13.576 142.396 13.72 142.06 14.008C141.74 14.28 141.484 14.776 141.292 15.496C141.116 16.2 141.02 17.2 141.004 18.496H145.108C145.268 16.752 145.204 15.496 144.916 14.728C144.628 13.96 144.076 13.576 143.26 13.576Z" fill="white"/>
</svg>
