<svg width="16" height="29" viewBox="0 0 16 29" fill="none" xmlns="http://www.w3.org/2000/svg">
<path d="M0 20.9109V20.5941L0.728713 20.3089C1.08779 20.1611 1.33069 19.971 1.45743 19.7386C1.60528 19.4851 1.67921 19.1472 1.67921 18.7248V2.18614C1.67921 1.7637 1.61584 1.4363 1.48911 1.20396C1.3835 0.950495 1.13003 0.749835 0.728713 0.60198L0 0.316831V0H15.1762L15.3663 4.87921H15.0495L13.6871 1.90099C13.497 1.52079 13.2964 1.21452 13.0851 0.982179C12.8739 0.749835 12.5571 0.633663 12.1347 0.633663H6.43168V9.7901H9.82178C10.2442 9.7901 10.5611 9.68449 10.7723 9.47327C11.0046 9.24092 11.2053 8.93465 11.3743 8.55446L12.0079 7.28713H12.3248V12.9901H12.0079L11.3743 11.6594C11.1842 11.2792 10.9835 10.9835 10.7723 10.7723C10.5611 10.5399 10.2442 10.4238 9.82178 10.4238H6.43168V20.2772H12.8317C13.2541 20.2772 13.5815 20.1716 13.8139 19.9604C14.0462 19.7281 14.2363 19.4112 14.3842 19.0099L15.6832 16.0317H16L15.8099 20.9109H0Z" fill="white"/>
<path d="M8 29L4.5359 23L11.4641 23L8 29Z" fill="white"/>
</svg>
