<svg width="196" height="56" viewBox="0 0 196 56" fill="none" xmlns="http://www.w3.org/2000/svg">
<path d="M47.528 48V47.76L48.08 47.544C48.352 47.432 48.536 47.288 48.632 47.112C48.744 46.92 48.8 46.664 48.8 46.344V33.816C48.8 33.496 48.752 33.248 48.656 33.072C48.576 32.88 48.384 32.728 48.08 32.616L47.528 32.4V32.16H59.024L59.168 35.856H58.928L57.896 33.6C57.752 33.312 57.6 33.08 57.44 32.904C57.28 32.728 57.04 32.64 56.72 32.64H52.4V39.576H54.968C55.288 39.576 55.528 39.496 55.688 39.336C55.864 39.16 56.016 38.928 56.144 38.64L56.624 37.68H56.864V42H56.624L56.144 40.992C56 40.704 55.848 40.48 55.688 40.32C55.528 40.144 55.288 40.056 54.968 40.056H52.4V47.52H57.248C57.568 47.52 57.816 47.44 57.992 47.28C58.168 47.104 58.312 46.864 58.424 46.56L59.408 44.304H59.648L59.504 48H47.528ZM60.8405 48V47.76L61.1525 47.688C61.4565 47.592 61.6965 47.448 61.8725 47.256C62.0485 47.064 62.1365 46.808 62.1365 46.488C62.1365 45.896 62.1365 45.312 62.1365 44.736C62.1525 44.144 62.1605 43.552 62.1605 42.96V36.936H60.8165V36.672L61.3445 36.576C61.6805 36.528 61.9125 36.416 62.0405 36.24C62.1685 36.048 62.2725 35.784 62.3525 35.448C62.5125 34.824 62.7445 34.28 63.0485 33.816C63.3685 33.336 63.7285 32.896 64.1285 32.496C64.7365 31.92 65.3765 31.52 66.0485 31.296C66.7365 31.056 67.4085 30.936 68.0645 30.936C68.4805 30.936 68.8805 31 69.2645 31.128C69.6645 31.24 69.9845 31.424 70.2245 31.68C70.4805 31.92 70.6085 32.24 70.6085 32.64C70.6085 33.072 70.4805 33.416 70.2245 33.672C69.9845 33.912 69.6245 34.032 69.1445 34.032C68.7605 34.032 68.4085 33.928 68.0885 33.72C67.7685 33.512 67.4565 33.144 67.1525 32.616L66.8165 32.208C66.6405 31.968 66.4565 31.856 66.2645 31.872C66.0885 31.888 65.9685 32.024 65.9045 32.28C65.7925 32.856 65.7045 33.52 65.6405 34.272C65.5925 35.008 65.5685 35.736 65.5685 36.456H69.5765C69.9125 36.456 70.1445 36.368 70.2725 36.192C70.4005 36 70.5045 35.752 70.5845 35.448C70.7445 34.824 70.9765 34.28 71.2805 33.816C71.6005 33.336 71.9605 32.896 72.3605 32.496C72.9685 31.92 73.6085 31.52 74.2805 31.296C74.9685 31.056 75.6405 30.936 76.2965 30.936C76.7285 30.936 77.1365 31 77.5205 31.128C77.9045 31.24 78.2245 31.424 78.4805 31.68C78.7365 31.92 78.8645 32.24 78.8645 32.64C78.8645 33.072 78.7365 33.416 78.4805 33.672C78.2245 33.912 77.8565 34.032 77.3765 34.032C76.9925 34.032 76.6405 33.928 76.3205 33.72C76.0005 33.512 75.6885 33.144 75.3845 32.616L75.0485 32.208C74.8725 31.968 74.6965 31.856 74.5205 31.872C74.3445 31.888 74.2165 32.024 74.1365 32.28C74.0245 32.856 73.9365 33.52 73.8725 34.272C73.8245 35.008 73.8005 35.736 73.8005 36.456H76.4885V36.936H73.8005V42.96C73.8005 43.536 73.8005 44.12 73.8005 44.712C73.8005 45.288 73.8005 45.864 73.8005 46.44C73.8165 47.048 74.1445 47.44 74.7845 47.616L75.3845 47.76V48H69.0725V47.76L69.3845 47.688C69.6885 47.592 69.9285 47.448 70.1045 47.256C70.2805 47.064 70.3765 46.808 70.3925 46.488C70.3925 45.896 70.3925 45.312 70.3925 44.736C70.3925 44.144 70.3925 43.552 70.3925 42.96V36.936H65.5685V42.96C65.5685 43.536 65.5685 44.12 65.5685 44.712C65.5685 45.288 65.5685 45.864 65.5685 46.44C65.5845 47.048 65.9045 47.44 66.5285 47.616L67.1285 47.76V48H60.8405ZM83.0118 36.096C84.0518 36.096 84.9398 36.312 85.6758 36.744C86.4118 37.16 86.9718 37.736 87.3558 38.472C87.7558 39.192 87.9558 40.016 87.9558 40.944C87.9558 41.12 87.9478 41.304 87.9318 41.496C87.9158 41.672 87.8838 41.832 87.8358 41.976H80.6838C80.6998 43.704 81.0038 44.952 81.5958 45.72C82.2038 46.472 83.0998 46.848 84.2838 46.848C85.0838 46.848 85.7318 46.72 86.2278 46.464C86.7238 46.208 87.1878 45.832 87.6198 45.336L87.8598 45.552C87.3638 46.432 86.6998 47.12 85.8678 47.616C85.0518 48.112 84.0678 48.36 82.9158 48.36C81.7798 48.36 80.7718 48.12 79.8918 47.64C79.0118 47.144 78.3238 46.44 77.8278 45.528C77.3318 44.616 77.0838 43.528 77.0838 42.264C77.0838 40.952 77.3718 39.84 77.9478 38.928C78.5238 38 79.2598 37.296 80.1558 36.816C81.0678 36.336 82.0198 36.096 83.0118 36.096ZM82.9398 36.576C82.4758 36.576 82.0758 36.72 81.7398 37.008C81.4198 37.28 81.1638 37.776 80.9718 38.496C80.7958 39.2 80.6998 40.2 80.6838 41.496H84.7878C84.9478 39.752 84.8838 38.496 84.5958 37.728C84.3078 36.96 83.7558 36.576 82.9398 36.576ZM89.1519 48V47.76L89.5119 47.664C89.8319 47.568 90.0479 47.424 90.1599 47.232C90.2879 47.04 90.3519 46.792 90.3519 46.488V38.976C90.3519 38.624 90.2879 38.368 90.1599 38.208C90.0479 38.032 89.8319 37.912 89.5119 37.848L89.1519 37.752V37.512L93.2799 36.12L93.5199 36.36L93.7359 38.424V38.616C93.9599 38.168 94.2479 37.76 94.5999 37.392C94.9679 37.008 95.3679 36.696 95.7999 36.456C96.2479 36.216 96.6879 36.096 97.1199 36.096C97.7279 36.096 98.1919 36.264 98.5119 36.6C98.8319 36.936 98.9919 37.36 98.9919 37.872C98.9919 38.416 98.8319 38.84 98.5119 39.144C98.2079 39.432 97.8399 39.576 97.4079 39.576C96.7359 39.576 96.1439 39.24 95.6319 38.568L95.5839 38.52C95.4239 38.296 95.2399 38.176 95.0319 38.16C94.8239 38.128 94.6319 38.224 94.4559 38.448C94.2959 38.592 94.1599 38.768 94.0479 38.976C93.9519 39.168 93.8559 39.392 93.7599 39.648V46.344C93.7599 46.984 94.0399 47.384 94.5999 47.544L95.3679 47.76V48H89.1519ZM105.497 48.072L101.249 37.872C101.025 37.328 100.641 36.968 100.097 36.792L99.7606 36.696V36.456H105.977V36.696L105.545 36.792C104.921 36.952 104.729 37.368 104.969 38.04L107.489 44.736L109.841 38.088C109.969 37.768 110.001 37.504 109.937 37.296C109.873 37.088 109.681 36.936 109.361 36.84L108.761 36.696V36.456H112.241V36.696L111.545 36.864C111.241 36.944 111.001 37.064 110.825 37.224C110.665 37.384 110.529 37.624 110.417 37.944L106.889 48.072H105.497ZM118.238 36.096C119.278 36.096 120.166 36.312 120.902 36.744C121.638 37.16 122.198 37.736 122.582 38.472C122.982 39.192 123.182 40.016 123.182 40.944C123.182 41.12 123.174 41.304 123.158 41.496C123.142 41.672 123.11 41.832 123.062 41.976H115.91C115.926 43.704 116.23 44.952 116.822 45.72C117.43 46.472 118.326 46.848 119.51 46.848C120.31 46.848 120.958 46.72 121.454 46.464C121.95 46.208 122.414 45.832 122.846 45.336L123.086 45.552C122.59 46.432 121.926 47.12 121.094 47.616C120.278 48.112 119.294 48.36 118.142 48.36C117.006 48.36 115.998 48.12 115.118 47.64C114.238 47.144 113.55 46.44 113.054 45.528C112.558 44.616 112.31 43.528 112.31 42.264C112.31 40.952 112.598 39.84 113.174 38.928C113.75 38 114.486 37.296 115.382 36.816C116.294 36.336 117.246 36.096 118.238 36.096ZM118.166 36.576C117.702 36.576 117.302 36.72 116.966 37.008C116.646 37.28 116.39 37.776 116.198 38.496C116.022 39.2 115.926 40.2 115.91 41.496H120.014C120.174 39.752 120.11 38.496 119.822 37.728C119.534 36.96 118.982 36.576 118.166 36.576ZM128.53 48.36C127.746 48.36 127.042 48.264 126.418 48.072C125.794 47.896 125.218 47.672 124.69 47.4L124.714 44.544H124.954L125.77 45.984C126.122 46.624 126.506 47.104 126.922 47.424C127.354 47.728 127.898 47.88 128.554 47.88C129.322 47.88 129.938 47.712 130.402 47.376C130.882 47.024 131.122 46.56 131.122 45.984C131.122 45.456 130.954 45.024 130.618 44.688C130.282 44.352 129.658 44.048 128.746 43.776L127.738 43.464C126.762 43.176 125.994 42.728 125.434 42.12C124.874 41.512 124.594 40.768 124.594 39.888C124.594 38.832 125.01 37.936 125.842 37.2C126.674 36.464 127.866 36.096 129.418 36.096C130.042 36.096 130.626 36.168 131.17 36.312C131.73 36.44 132.266 36.64 132.778 36.912L132.634 39.504H132.394L131.554 38.016C131.25 37.488 130.946 37.12 130.642 36.912C130.354 36.688 129.914 36.576 129.322 36.576C128.778 36.576 128.266 36.728 127.786 37.032C127.306 37.336 127.066 37.768 127.066 38.328C127.066 38.872 127.266 39.304 127.666 39.624C128.082 39.944 128.69 40.24 129.49 40.512L130.57 40.824C131.722 41.176 132.546 41.664 133.042 42.288C133.538 42.896 133.786 43.632 133.786 44.496C133.786 45.664 133.322 46.6 132.394 47.304C131.482 48.008 130.194 48.36 128.53 48.36ZM140.784 48.36C139.696 48.36 138.704 48.128 137.808 47.664C136.928 47.184 136.224 46.496 135.696 45.6C135.184 44.688 134.928 43.576 134.928 42.264C134.928 40.968 135.208 39.864 135.768 38.952C136.344 38.024 137.104 37.32 138.048 36.84C139.008 36.344 140.056 36.096 141.192 36.096C142.12 36.096 142.904 36.248 143.544 36.552C144.184 36.856 144.672 37.256 145.008 37.752C145.344 38.232 145.512 38.736 145.512 39.264C145.512 39.712 145.376 40.064 145.104 40.32C144.832 40.56 144.48 40.68 144.048 40.68C143.584 40.68 143.208 40.512 142.92 40.176C142.632 39.84 142.464 39.4 142.416 38.856C142.4 38.504 142.408 38.208 142.44 37.968C142.472 37.712 142.472 37.456 142.44 37.2C142.376 36.928 142.272 36.752 142.128 36.672C142 36.576 141.816 36.528 141.576 36.528C140.6 36.528 139.84 36.952 139.296 37.8C138.768 38.648 138.504 40 138.504 41.856C138.504 43.472 138.8 44.712 139.392 45.576C140 46.424 140.928 46.848 142.176 46.848C142.928 46.848 143.536 46.712 144 46.44C144.464 46.168 144.912 45.76 145.344 45.216L145.584 45.408C145.184 46.352 144.568 47.08 143.736 47.592C142.904 48.104 141.92 48.36 140.784 48.36ZM152.574 36.096C153.614 36.096 154.502 36.312 155.238 36.744C155.974 37.16 156.534 37.736 156.918 38.472C157.318 39.192 157.518 40.016 157.518 40.944C157.518 41.12 157.51 41.304 157.494 41.496C157.478 41.672 157.446 41.832 157.398 41.976H150.246C150.262 43.704 150.566 44.952 151.158 45.72C151.766 46.472 152.662 46.848 153.846 46.848C154.646 46.848 155.294 46.72 155.79 46.464C156.286 46.208 156.75 45.832 157.182 45.336L157.422 45.552C156.926 46.432 156.262 47.12 155.43 47.616C154.614 48.112 153.63 48.36 152.478 48.36C151.342 48.36 150.334 48.12 149.454 47.64C148.574 47.144 147.886 46.44 147.39 45.528C146.894 44.616 146.646 43.528 146.646 42.264C146.646 40.952 146.934 39.84 147.51 38.928C148.086 38 148.822 37.296 149.718 36.816C150.63 36.336 151.582 36.096 152.574 36.096ZM152.502 36.576C152.038 36.576 151.638 36.72 151.302 37.008C150.982 37.28 150.726 37.776 150.534 38.496C150.358 39.2 150.262 40.2 150.246 41.496H154.35C154.51 39.752 154.446 38.496 154.158 37.728C153.87 36.96 153.318 36.576 152.502 36.576ZM158.714 48V47.76L159.05 47.664C159.61 47.504 159.89 47.112 159.89 46.488V38.976C159.89 38.624 159.834 38.368 159.722 38.208C159.61 38.032 159.394 37.912 159.074 37.848L158.714 37.752V37.512L162.818 36.12L163.058 36.36L163.25 37.8C163.81 37.304 164.442 36.896 165.146 36.576C165.85 36.256 166.546 36.096 167.234 36.096C168.29 36.096 169.098 36.384 169.658 36.96C170.234 37.536 170.522 38.416 170.522 39.6V46.512C170.522 47.136 170.826 47.528 171.434 47.688L171.65 47.76V48H165.986V47.76L166.298 47.664C166.858 47.488 167.138 47.096 167.138 46.488V38.832C167.138 37.808 166.626 37.296 165.602 37.296C164.898 37.296 164.13 37.648 163.298 38.352V46.512C163.298 47.136 163.578 47.528 164.138 47.688L164.354 47.76V48H158.714ZM178.541 48.36C177.453 48.36 176.461 48.128 175.565 47.664C174.685 47.184 173.981 46.496 173.453 45.6C172.941 44.688 172.685 43.576 172.685 42.264C172.685 40.968 172.965 39.864 173.525 38.952C174.101 38.024 174.861 37.32 175.805 36.84C176.765 36.344 177.813 36.096 178.949 36.096C179.877 36.096 180.661 36.248 181.301 36.552C181.941 36.856 182.429 37.256 182.765 37.752C183.101 38.232 183.269 38.736 183.269 39.264C183.269 39.712 183.133 40.064 182.861 40.32C182.589 40.56 182.237 40.68 181.805 40.68C181.341 40.68 180.965 40.512 180.677 40.176C180.389 39.84 180.221 39.4 180.173 38.856C180.157 38.504 180.165 38.208 180.197 37.968C180.229 37.712 180.229 37.456 180.197 37.2C180.133 36.928 180.029 36.752 179.885 36.672C179.757 36.576 179.573 36.528 179.333 36.528C178.357 36.528 177.597 36.952 177.053 37.8C176.525 38.648 176.261 40 176.261 41.856C176.261 43.472 176.557 44.712 177.149 45.576C177.757 46.424 178.685 46.848 179.933 46.848C180.685 46.848 181.293 46.712 181.757 46.44C182.221 46.168 182.669 45.76 183.101 45.216L183.341 45.408C182.941 46.352 182.325 47.08 181.493 47.592C180.661 48.104 179.677 48.36 178.541 48.36ZM190.332 36.096C191.372 36.096 192.26 36.312 192.996 36.744C193.732 37.16 194.292 37.736 194.676 38.472C195.076 39.192 195.276 40.016 195.276 40.944C195.276 41.12 195.268 41.304 195.252 41.496C195.236 41.672 195.204 41.832 195.156 41.976H188.004C188.02 43.704 188.324 44.952 188.916 45.72C189.524 46.472 190.42 46.848 191.604 46.848C192.404 46.848 193.052 46.72 193.548 46.464C194.044 46.208 194.508 45.832 194.94 45.336L195.18 45.552C194.684 46.432 194.02 47.12 193.188 47.616C192.372 48.112 191.388 48.36 190.236 48.36C189.1 48.36 188.092 48.12 187.212 47.64C186.332 47.144 185.644 46.44 185.148 45.528C184.652 44.616 184.404 43.528 184.404 42.264C184.404 40.952 184.692 39.84 185.268 38.928C185.844 38 186.58 37.296 187.476 36.816C188.388 36.336 189.34 36.096 190.332 36.096ZM190.26 36.576C189.796 36.576 189.396 36.72 189.06 37.008C188.74 37.28 188.484 37.776 188.292 38.496C188.116 39.2 188.02 40.2 188.004 41.496H192.108C192.268 39.752 192.204 38.496 191.916 37.728C191.628 36.96 191.076 36.576 190.26 36.576Z" fill="white"/>
<path d="M11.952 24.272C11.744 24.288 11.552 24.24 11.376 24.128C11.216 24.032 11.104 23.904 11.04 23.744C10.976 23.664 10.88 23.528 10.752 23.336C10.624 23.144 10.544 22.952 10.512 22.76C10.464 22.248 10.432 21.752 10.416 21.272C10.416 20.792 10.44 20.12 10.488 19.256C10.536 18.552 10.624 17.872 10.752 17.216C10.896 16.544 11.032 15.944 11.16 15.416C11.304 14.888 11.416 14.472 11.496 14.168C11.576 13.848 11.592 13.688 11.544 13.688C11.48 13.688 11.384 13.808 11.256 14.048C11.128 14.272 10.984 14.552 10.824 14.888C10.664 15.224 10.504 15.56 10.344 15.896C10.184 16.216 10.048 16.48 9.936 16.688C9.712 17.184 9.448 17.712 9.144 18.272C8.856 18.816 8.56 19.344 8.256 19.856C7.952 20.368 7.688 20.816 7.464 21.2C7.32 21.36 7.152 21.592 6.96 21.896C6.768 22.184 6.56 22.488 6.336 22.808C6.112 23.128 5.88 23.392 5.64 23.6C5.288 23.936 4.936 24.12 4.584 24.152C4.248 24.184 3.96 24.096 3.72 23.888C3.672 23.824 3.616 23.744 3.552 23.648C3.504 23.568 3.464 23.456 3.432 23.312C3.4 23.168 3.408 23 3.456 22.808C3.44 22.584 3.44 22.24 3.456 21.776C3.488 21.296 3.536 20.776 3.6 20.216C3.664 19.64 3.728 19.088 3.792 18.56C3.872 18.032 3.944 17.592 4.008 17.24C4.152 16.216 4.344 15.168 4.584 14.096C4.84 13.024 5.072 11.944 5.28 10.856C5.408 10.536 5.52 10.176 5.616 9.776C5.728 9.36 5.84 8.976 5.952 8.624C5.968 8.272 6.048 8.04 6.192 7.928C6.336 7.8 6.496 7.76 6.672 7.808C6.864 7.84 7.016 7.936 7.128 8.096C7.288 8.256 7.408 8.504 7.488 8.84C7.584 9.176 7.52 9.6 7.296 10.112C6.976 10.896 6.664 11.856 6.36 12.992C6.072 14.112 5.808 15.472 5.568 17.072C5.504 17.456 5.432 17.912 5.352 18.44C5.272 18.968 5.2 19.48 5.136 19.976C5.072 20.472 5.024 20.888 4.992 21.224C4.976 21.56 4.984 21.736 5.016 21.752C5.144 21.784 5.32 21.688 5.544 21.464C5.768 21.224 5.968 20.912 6.144 20.528C6.8 19.44 7.448 18.304 8.088 17.12C8.744 15.92 9.368 14.736 9.96 13.568C10.232 13.104 10.504 12.6 10.776 12.056C11.064 11.496 11.336 10.984 11.592 10.52C11.864 10.04 12.112 9.608 12.336 9.224C12.56 8.824 12.752 8.496 12.912 8.24C13.072 7.984 13.2 7.84 13.296 7.808C13.552 7.824 13.768 7.888 13.944 8C14.136 8.096 14.296 8.304 14.424 8.624C14.456 8.704 14.448 8.84 14.4 9.032C14.352 9.224 14.296 9.392 14.232 9.536C14.216 9.648 14.144 9.88 14.016 10.232C13.904 10.584 13.8 10.976 13.704 11.408C13.544 11.84 13.4 12.272 13.272 12.704C13.16 13.12 13.08 13.464 13.032 13.736C12.904 14.424 12.744 15.184 12.552 16.016C12.36 16.832 12.192 17.648 12.048 18.464C11.92 19.264 11.848 19.984 11.832 20.624C11.816 21.072 11.816 21.424 11.832 21.68C11.864 21.936 11.912 22.136 11.976 22.28C12.008 22.408 12.104 22.488 12.264 22.52C12.44 22.552 12.584 22.496 12.696 22.352C13.016 21.952 13.288 21.592 13.512 21.272C13.752 20.936 13.976 20.6 14.184 20.264C14.392 19.912 14.608 19.52 14.832 19.088C15.232 18.352 15.64 17.536 16.056 16.64C16.488 15.728 16.896 14.824 17.28 13.928C17.68 13.032 18.024 12.248 18.312 11.576C18.616 10.712 18.856 10.024 19.032 9.512C19.224 9 19.392 8.616 19.536 8.36C19.68 8.104 19.832 7.928 19.992 7.832C20.072 7.768 20.184 7.736 20.328 7.736C20.472 7.736 20.616 7.8 20.76 7.928C20.824 7.992 20.88 8.096 20.928 8.24C20.992 8.368 21.016 8.528 21 8.72C20.92 8.976 20.776 9.384 20.568 9.944C20.376 10.504 20.152 11.12 19.896 11.792C19.64 12.464 19.392 13.104 19.152 13.712C18.912 14.32 18.704 14.808 18.528 15.176C18.352 15.512 18.184 15.8 18.024 16.04C17.864 16.28 17.784 16.464 17.784 16.592C17.784 16.656 17.704 16.856 17.544 17.192C17.384 17.512 17.176 17.904 16.92 18.368C16.68 18.832 16.416 19.312 16.128 19.808C15.84 20.304 15.568 20.76 15.312 21.176C15.056 21.592 14.84 21.912 14.664 22.136C14.264 22.632 13.872 23.04 13.488 23.36C13.12 23.68 12.8 23.912 12.528 24.056C12.256 24.2 12.064 24.272 11.952 24.272ZM24.1318 22.16C23.7958 22.448 23.4038 22.616 22.9558 22.664C22.5238 22.712 22.0998 22.648 21.6838 22.472C21.2678 22.28 20.9238 21.992 20.6518 21.608C20.3798 21.256 20.2038 20.856 20.1238 20.408C20.0438 19.944 20.0358 19.344 20.0998 18.608C20.1478 17.984 20.3478 17.36 20.6998 16.736C21.0518 16.096 21.4758 15.528 21.9718 15.032C22.4838 14.536 22.9878 14.192 23.4838 14C23.7238 13.84 23.9238 13.768 24.0838 13.784C24.2598 13.784 24.5238 13.8 24.8758 13.832C25.2438 13.88 25.5158 13.952 25.6918 14.048C25.8838 14.144 26.0358 14.272 26.1478 14.432C26.3878 14.672 26.5478 14.912 26.6278 15.152C26.7078 15.376 26.7478 15.6 26.7478 15.824C26.6838 16.176 26.4438 16.608 26.0278 17.12C25.6278 17.616 25.0998 18.024 24.4438 18.344C24.0918 18.456 23.7078 18.504 23.2918 18.488C22.8758 18.472 22.5318 18.368 22.2598 18.176C21.9558 18.048 21.7558 18.072 21.6598 18.248C21.5638 18.408 21.4758 18.808 21.3958 19.448C21.3318 20.056 21.3798 20.504 21.5398 20.792C21.6998 21.064 21.9158 21.224 22.1878 21.272C22.5078 21.336 22.7558 21.384 22.9318 21.416C23.1238 21.432 23.3558 21.36 23.6278 21.2C23.8838 21.04 24.0438 20.952 24.1078 20.936C24.1718 20.904 24.2198 20.872 24.2518 20.84C24.2998 20.792 24.4038 20.688 24.5638 20.528C24.6758 20.416 24.7638 20.336 24.8278 20.288C24.8918 20.224 24.9638 20.192 25.0438 20.192C25.1238 20.192 25.1958 20.232 25.2598 20.312C25.3238 20.376 25.3878 20.424 25.4518 20.456C25.6118 20.456 25.6438 20.552 25.5478 20.744C25.4678 20.936 25.2998 21.168 25.0438 21.44C24.7878 21.696 24.4838 21.936 24.1318 22.16ZM24.1078 17.072C24.2838 16.992 24.4678 16.88 24.6598 16.736C24.8518 16.576 25.0118 16.408 25.1398 16.232C25.2838 16.04 25.3558 15.88 25.3558 15.752C25.3558 15.528 25.2518 15.344 25.0438 15.2C24.8358 15.04 24.5238 15.016 24.1078 15.128C23.9318 15.176 23.7318 15.296 23.5078 15.488C23.2838 15.664 23.0678 15.864 22.8598 16.088C22.6678 16.312 22.5078 16.512 22.3798 16.688C22.2678 16.864 22.2278 16.968 22.2598 17C22.3078 17.08 22.4438 17.144 22.6678 17.192C22.8918 17.224 23.1398 17.232 23.4118 17.216C23.6998 17.2 23.9318 17.152 24.1078 17.072ZM28.6669 23C28.3629 23.08 28.1149 23.016 27.9229 22.808C27.7469 22.6 27.6429 22.28 27.6109 21.848C27.5789 21.416 27.6269 20.904 27.7549 20.312C27.8349 20.12 27.8989 19.936 27.9469 19.76C27.9949 19.568 28.0189 19.416 28.0189 19.304C28.0509 19.144 28.1149 18.912 28.2109 18.608C28.3069 18.288 28.4109 17.96 28.5229 17.624C28.6349 17.288 28.7389 16.992 28.8349 16.736C28.9469 16.464 29.0189 16.296 29.0509 16.232C29.1149 16.232 29.1709 16.176 29.2189 16.064C29.2669 15.952 29.2909 15.84 29.2909 15.728C29.2909 15.6 29.3149 15.456 29.3629 15.296C29.4269 15.136 29.4909 15.024 29.5549 14.96C29.5549 14.88 29.5709 14.792 29.6029 14.696C29.6509 14.584 29.6749 14.496 29.6749 14.432C29.6749 14.368 29.6909 14.304 29.7229 14.24C29.7709 14.176 29.7949 14.112 29.7949 14.048C29.9069 13.84 30.0509 13.512 30.2269 13.064C30.4189 12.6 30.6189 12.088 30.8269 11.528C31.0509 10.968 31.2589 10.416 31.4509 9.872C31.6429 9.328 31.7949 8.872 31.9069 8.504C32.0349 8.12 32.0989 7.888 32.0989 7.808C32.0989 7.68 32.1309 7.584 32.1949 7.52C32.2589 7.456 32.3549 7.424 32.4829 7.424C32.5309 7.376 32.5869 7.344 32.6509 7.328C32.7309 7.312 32.8029 7.304 32.8669 7.304C32.8669 7.304 32.8989 7.336 32.9629 7.4C33.0269 7.464 33.1229 7.56 33.2509 7.688C33.3789 7.8 33.4509 7.928 33.4669 8.072C33.4989 8.216 33.5149 8.384 33.5149 8.576C33.5149 8.784 33.4909 8.968 33.4429 9.128C33.3949 9.288 33.2989 9.52 33.1549 9.824C33.0109 10.128 32.7869 10.6 32.4829 11.24C32.3549 11.56 32.2189 11.864 32.0749 12.152C31.9309 12.424 31.8589 12.592 31.8589 12.656C31.8589 12.72 31.8269 12.816 31.7629 12.944C31.7149 13.072 31.6589 13.232 31.5949 13.424C31.5309 13.552 31.4429 13.744 31.3309 14C31.2189 14.24 31.0989 14.504 30.9709 14.792C30.8589 15.064 30.7629 15.304 30.6829 15.512C30.6029 15.704 30.5629 15.816 30.5629 15.848C30.5629 15.912 30.5549 15.976 30.5389 16.04C30.5389 16.104 30.5069 16.168 30.4429 16.232C30.3789 16.232 30.3389 16.28 30.3229 16.376C30.3229 16.456 30.3229 16.496 30.3229 16.496C30.3229 16.656 30.1949 17.08 29.9389 17.768C29.6829 18.648 29.4429 19.456 29.2189 20.192C29.0109 20.928 28.9069 21.52 28.9069 21.968C28.9069 22.352 28.8989 22.608 28.8829 22.736C28.8669 22.848 28.7949 22.936 28.6669 23ZM34.5216 22.448C34.1696 22.448 33.9056 22.432 33.7296 22.4C33.5536 22.368 33.4176 22.32 33.3216 22.256C33.2256 22.192 33.1136 22.104 32.9856 21.992C32.9216 21.864 32.8416 21.728 32.7456 21.584C32.6496 21.44 32.5696 21.336 32.5056 21.272C32.4416 21.032 32.4096 20.72 32.4096 20.336C32.4256 19.952 32.4736 19.536 32.5536 19.088C32.6496 18.64 32.7776 18.224 32.9376 17.84C33.0016 17.712 33.0576 17.584 33.1056 17.456C33.1536 17.328 33.1776 17.264 33.1776 17.264C33.1776 17.184 33.2736 16.992 33.4656 16.688C33.6736 16.384 33.8976 16.064 34.1376 15.728C34.3936 15.392 34.6016 15.152 34.7616 15.008C34.8736 14.88 35.0416 14.744 35.2656 14.6C35.5056 14.456 35.7136 14.352 35.8896 14.288C36.0656 14.224 36.2416 14.168 36.4176 14.12C36.6096 14.072 36.8256 14.048 37.0656 14.048C37.2896 14.048 37.4976 14.096 37.6896 14.192C37.8816 14.288 38.0656 14.456 38.2416 14.696C38.5296 14.984 38.6896 15.272 38.7216 15.56C38.7696 15.832 38.7616 16.112 38.6976 16.4C38.6176 16.72 38.5136 16.968 38.3856 17.144C38.2576 17.304 38.1136 17.376 37.9536 17.36C37.7936 17.344 37.6096 17.224 37.4016 17C37.3376 16.872 37.3056 16.768 37.3056 16.688C37.3056 16.592 37.3376 16.456 37.4016 16.28C37.4656 16.056 37.4656 15.824 37.4016 15.584C37.3376 15.344 37.2336 15.224 37.0896 15.224C36.8816 15.224 36.6496 15.32 36.3936 15.512C36.1536 15.688 35.9056 15.912 35.6496 16.184C35.5376 16.312 35.3776 16.512 35.1696 16.784C34.9776 17.04 34.7856 17.328 34.5936 17.648C34.4016 17.952 34.2416 18.248 34.1136 18.536C33.9376 19.064 33.7936 19.488 33.6816 19.808C33.5856 20.128 33.5376 20.288 33.5376 20.288C33.5376 20.352 33.5536 20.416 33.5856 20.48C33.6336 20.528 33.6576 20.584 33.6576 20.648C33.6576 20.84 33.7696 20.992 33.9936 21.104C34.1696 21.216 34.3776 21.28 34.6176 21.296C34.8576 21.296 35.1536 21.216 35.5056 21.056C35.7616 20.928 36.0016 20.76 36.2256 20.552C36.4656 20.344 36.7136 20.16 36.9696 20C37.1456 19.888 37.2816 19.792 37.3776 19.712C37.4896 19.632 37.5456 19.624 37.5456 19.688C37.5456 19.752 37.5696 19.784 37.6176 19.784C37.6656 19.784 37.7216 19.752 37.7856 19.688C37.8816 19.56 37.9856 19.48 38.0976 19.448C38.2096 19.4 38.3056 19.384 38.3856 19.4C38.4816 19.4 38.5296 19.424 38.5296 19.472C38.4976 19.616 38.5296 19.736 38.6256 19.832C38.6256 19.896 38.6016 19.984 38.5536 20.096C38.5216 20.192 38.4736 20.272 38.4096 20.336C38.3296 20.448 38.2096 20.576 38.0496 20.72C37.9056 20.864 37.7696 20.992 37.6416 21.104C37.5136 21.2 37.4496 21.248 37.4496 21.248C37.3856 21.232 37.3216 21.248 37.2576 21.296C37.2096 21.344 37.1536 21.4 37.0896 21.464C36.9616 21.576 36.8416 21.664 36.7296 21.728C36.6176 21.776 36.5296 21.8 36.4656 21.8C36.3536 21.864 36.2656 21.904 36.2016 21.92C36.1536 21.936 36.1296 21.976 36.1296 22.04C35.9696 22.2 35.7696 22.312 35.5296 22.376C35.3056 22.424 34.9696 22.448 34.5216 22.448ZM42.9356 22.088C42.5996 22.152 42.3836 22.176 42.2876 22.16C42.2076 22.128 42.0796 22.032 41.9036 21.872C41.6476 21.744 41.4316 21.584 41.2556 21.392C41.0956 21.2 40.9756 21 40.8956 20.792C40.8316 20.568 40.8076 20.384 40.8236 20.24C40.8716 19.68 41.0076 19.08 41.2316 18.44C41.4556 17.8 41.7276 17.184 42.0476 16.592C42.3676 16 42.7116 15.496 43.0796 15.08C43.4636 14.648 43.8316 14.368 44.1836 14.24C44.5036 14.112 44.8076 14.064 45.0956 14.096C45.3836 14.128 45.5916 14.28 45.7196 14.552C45.9596 15.016 45.9036 15.312 45.5516 15.44C45.5036 15.44 45.4476 15.464 45.3836 15.512C45.3196 15.544 45.2876 15.592 45.2876 15.656C45.3516 15.688 45.5276 15.696 45.8156 15.68C46.1036 15.648 46.3916 15.6 46.6796 15.536C46.9836 15.456 47.1836 15.376 47.2796 15.296C47.3756 15.248 47.4476 15.224 47.4956 15.224C47.5436 15.224 47.6636 15.24 47.8556 15.272C48.1276 15.352 48.2636 15.448 48.2636 15.56C48.2636 15.624 48.2876 15.688 48.3356 15.752C48.3836 15.8 48.4396 15.824 48.5036 15.824C48.6156 15.84 48.5996 15.912 48.4556 16.04C48.3276 16.168 48.1036 16.344 47.7836 16.568C47.4796 16.76 47.2876 16.888 47.2076 16.952C47.1436 17 47.1356 17.112 47.1836 17.288C47.3116 17.592 47.3196 17.944 47.2076 18.344C47.0956 18.744 46.8956 19.152 46.6076 19.568C46.3196 19.984 45.9676 20.376 45.5516 20.744C45.1516 21.096 44.7196 21.4 44.2556 21.656C43.8076 21.896 43.3676 22.04 42.9356 22.088ZM42.5276 21.032C42.5916 21.032 42.7036 21 42.8636 20.936C43.0236 20.856 43.1516 20.792 43.2476 20.744C43.3116 20.68 43.3916 20.608 43.4876 20.528C43.5996 20.432 43.6876 20.376 43.7516 20.36C43.8156 20.36 43.8956 20.336 43.9916 20.288C44.0876 20.224 44.2236 20.104 44.3996 19.928C44.5756 19.736 44.8076 19.456 45.0956 19.088C45.4156 18.736 45.6636 18.416 45.8396 18.128C46.0156 17.824 46.0636 17.544 45.9836 17.288C45.9676 17.224 45.9196 17.184 45.8396 17.168C45.7756 17.152 45.6876 17.112 45.5756 17.048C45.4156 17.048 45.2636 17.008 45.1196 16.928C44.9916 16.832 44.8396 16.712 44.6636 16.568L44.2796 16.088L43.8716 16.496C43.6156 16.752 43.3436 17.136 43.0556 17.648C42.7836 18.144 42.5516 18.656 42.3596 19.184C42.1676 19.696 42.0556 20.104 42.0236 20.408C42.0076 20.648 42.0476 20.808 42.1436 20.888C42.2396 20.968 42.3676 21.016 42.5276 21.032ZM50.0046 21.824C49.8286 21.712 49.6686 21.568 49.5246 21.392C49.3806 21.2 49.3086 20.96 49.3086 20.672C49.3086 20.512 49.3406 20.24 49.4046 19.856C49.4686 19.472 49.5566 19.04 49.6686 18.56C49.7806 18.08 49.8926 17.632 50.0046 17.216C50.1646 16.928 50.3006 16.64 50.4126 16.352C50.5246 16.064 50.5806 15.888 50.5806 15.824C50.6126 15.632 50.6526 15.408 50.7006 15.152C50.7646 14.896 50.8286 14.664 50.8926 14.456C50.9566 14.248 51.0046 14.128 51.0366 14.096C51.1166 14.016 51.2126 13.968 51.3246 13.952C51.4366 13.92 51.5486 13.936 51.6606 14C51.7886 14.048 51.8846 14.152 51.9486 14.312C52.1246 14.504 52.2126 14.736 52.2126 15.008C52.2126 15.264 52.1246 15.648 51.9486 16.16C51.8046 16.48 51.6606 16.856 51.5166 17.288C51.3726 17.72 51.2446 18.12 51.1326 18.488C51.0366 18.84 50.9806 19.08 50.9646 19.208L50.4846 19.352C50.7566 19.096 51.0126 18.832 51.2526 18.56C51.4926 18.272 51.6686 18.048 51.7806 17.888C52.0526 17.52 52.2846 17.216 52.4766 16.976C52.6846 16.72 52.9486 16.416 53.2686 16.064C53.5886 15.696 53.9006 15.472 54.2046 15.392C54.5246 15.296 54.7726 15.248 54.9486 15.248C55.3006 15.312 55.5806 15.496 55.7886 15.8C56.0126 16.088 56.1566 16.52 56.2206 17.096C56.2206 17.32 56.1966 17.584 56.1486 17.888C56.1166 18.192 56.1006 18.344 56.1006 18.344C56.1006 18.344 56.2286 18.176 56.4846 17.84C56.7566 17.504 57.1166 17.136 57.5646 16.736C57.8686 16.512 58.1646 16.384 58.4526 16.352C58.7406 16.304 58.9966 16.4 59.2206 16.64C59.6366 16.864 59.9086 17.208 60.0366 17.672C60.1646 18.12 60.1966 18.696 60.1326 19.4C60.0846 19.816 60.0766 20.128 60.1086 20.336C60.1406 20.528 60.1886 20.72 60.2526 20.912C60.3806 20.976 60.4046 21.112 60.3246 21.32C60.2446 21.512 60.1486 21.608 60.0366 21.608C59.8766 21.608 59.6926 21.576 59.4846 21.512C59.2926 21.448 59.1166 21.344 58.9566 21.2C58.8126 21.04 58.7406 20.824 58.7406 20.552V19.064C58.7406 18.712 58.7246 18.424 58.6926 18.2C58.6766 17.976 58.6366 17.84 58.5726 17.792C58.3966 17.696 58.1406 17.8 57.8046 18.104C57.4686 18.408 57.1086 18.816 56.7246 19.328C56.3406 19.84 55.9806 20.368 55.6446 20.912C55.3406 21.408 55.1486 21.696 55.0686 21.776C55.0046 21.84 54.8846 21.816 54.7086 21.704C54.3566 21.592 54.1326 21.44 54.0366 21.248C53.9566 21.04 53.9486 20.808 54.0126 20.552C54.0926 20.28 54.1886 19.912 54.3006 19.448C54.4286 18.984 54.5486 18.536 54.6606 18.104C54.7726 17.656 54.8446 17.336 54.8766 17.144C54.8126 17.016 54.7006 16.976 54.5406 17.024C54.3966 17.056 54.2446 17.128 54.0846 17.24C53.8926 17.368 53.6606 17.608 53.3886 17.96C53.1166 18.312 52.8366 18.72 52.5486 19.184C52.3566 19.488 52.1566 19.792 51.9486 20.096C51.7406 20.384 51.5486 20.64 51.3726 20.864C51.1966 21.088 51.0446 21.256 50.9166 21.368C50.6926 21.72 50.5406 21.912 50.4606 21.944C50.3806 21.976 50.2286 21.936 50.0046 21.824ZM63.9863 22.424C63.3623 22.168 62.9543 21.816 62.7623 21.368C62.5863 20.904 62.5543 20.192 62.6663 19.232C62.6983 18.736 62.7143 18.408 62.7143 18.248C62.7143 18.088 62.6263 17.928 62.4503 17.768C62.4023 17.704 62.3143 17.616 62.1863 17.504C62.0743 17.392 62.0263 17.296 62.0423 17.216C62.0263 17.104 62.0343 16.984 62.0663 16.856C62.0983 16.712 62.1463 16.64 62.2103 16.64C62.2743 16.64 62.3383 16.624 62.4023 16.592C62.4823 16.56 62.5543 16.56 62.6183 16.592C62.6823 16.592 62.7543 16.6 62.8343 16.616C62.9143 16.632 62.9543 16.672 62.9543 16.736C63.0183 16.848 63.1223 16.864 63.2663 16.784C63.4103 16.688 63.5623 16.48 63.7223 16.16C63.8823 15.904 64.0903 15.648 64.3463 15.392C64.6183 15.136 64.8823 14.904 65.1383 14.696C65.4103 14.472 65.6343 14.312 65.8103 14.216C65.8903 14.184 66.0103 14.144 66.1703 14.096C66.3303 14.048 66.4983 14.008 66.6743 13.976C66.8663 13.944 67.0263 13.936 67.1543 13.952C67.4423 13.968 67.6823 14.048 67.8743 14.192C68.0823 14.336 68.2743 14.504 68.4503 14.696C68.6583 14.84 68.7863 15.032 68.8343 15.272C68.8983 15.512 68.9143 15.768 68.8823 16.04C68.8503 16.312 68.7783 16.56 68.6663 16.784C68.6183 16.944 68.4823 17.136 68.2583 17.36C68.0343 17.584 67.7783 17.8 67.4903 18.008C67.2023 18.216 66.9383 18.368 66.6983 18.464C66.4903 18.512 66.2183 18.552 65.8823 18.584C65.5623 18.616 65.2583 18.632 64.9703 18.632C64.6983 18.616 64.5143 18.584 64.4183 18.536C64.3063 18.472 64.2183 18.56 64.1543 18.8C64.0903 19.04 64.0423 19.384 64.0103 19.832C63.9783 20.184 63.9783 20.44 64.0103 20.6C64.0423 20.76 64.0743 20.872 64.1063 20.936C64.2183 21.048 64.3703 21.192 64.5623 21.368C64.7703 21.528 65.0583 21.552 65.4263 21.44C65.7303 21.36 66.0263 21.152 66.3143 20.816C66.6183 20.48 66.8983 20.208 67.1543 20C67.2183 19.888 67.3223 19.824 67.4663 19.808C67.6263 19.776 67.7943 19.784 67.9703 19.832C68.1463 19.944 68.2183 20.08 68.1863 20.24C68.1703 20.384 68.0903 20.608 67.9463 20.912C67.8983 21.024 67.7863 21.168 67.6103 21.344C67.4503 21.504 67.2663 21.672 67.0583 21.848C66.8663 22.008 66.6903 22.136 66.5303 22.232C66.0503 22.488 65.6023 22.624 65.1863 22.64C64.7703 22.64 64.3703 22.568 63.9863 22.424ZM65.4023 17.552C65.7543 17.472 66.0343 17.416 66.2422 17.384C66.4503 17.352 66.6503 17.264 66.8423 17.12C67.0343 16.96 67.2743 16.664 67.5623 16.232C67.6263 16.056 67.6423 15.88 67.6103 15.704C67.5943 15.528 67.5543 15.408 67.4903 15.344C67.3463 15.184 67.1703 15.136 66.9622 15.2C66.7703 15.248 66.5863 15.336 66.4103 15.464C66.2983 15.512 66.1302 15.632 65.9062 15.824C65.6983 16 65.4903 16.208 65.2823 16.448C65.0743 16.672 64.9063 16.88 64.7783 17.072C64.6503 17.264 64.6183 17.376 64.6823 17.408C64.6503 17.472 64.7383 17.512 64.9463 17.528C65.1703 17.544 65.3223 17.552 65.4023 17.552ZM77.8194 22.832C77.6434 22.8 77.4594 22.712 77.2674 22.568C77.0914 22.408 76.9314 22.232 76.7874 22.04C76.6594 21.832 76.5714 21.648 76.5234 21.488C76.5234 21.456 76.4994 21.416 76.4514 21.368C76.4194 21.32 76.4034 21.296 76.4034 21.296C76.3394 21.248 76.2994 21.04 76.2834 20.672C76.2834 20.288 76.3074 19.864 76.3554 19.4C76.4034 18.936 76.4594 18.568 76.5234 18.296C76.6034 18.04 76.7234 17.696 76.8834 17.264C77.0434 16.816 77.1794 16.416 77.2914 16.064L77.9394 14.672L76.9794 14.408C76.8674 14.376 76.7714 14.312 76.6914 14.216C76.6274 14.12 76.5954 14.04 76.5954 13.976C76.5954 13.848 76.6674 13.696 76.8114 13.52C76.9554 13.328 77.0594 13.232 77.1234 13.232C77.2034 13.248 77.3474 13.256 77.5554 13.256C77.7794 13.256 77.9954 13.248 78.2034 13.232C78.4114 13.216 78.5394 13.2 78.5874 13.184C78.6514 13.152 78.7154 13.112 78.7794 13.064C78.8434 13 78.8914 12.912 78.9234 12.8C79.0034 12.624 79.0754 12.464 79.1394 12.32C79.2034 12.16 79.2914 11.984 79.4034 11.792C79.5154 11.584 79.6034 11.408 79.6674 11.264C79.7474 11.12 79.8674 10.92 80.0274 10.664C80.1074 10.552 80.1954 10.416 80.2914 10.256C80.3874 10.096 80.5074 9.96 80.6514 9.848C80.7954 9.72 80.9394 9.664 81.0834 9.68C81.2434 9.68 81.4434 9.784 81.6834 9.992C81.8114 10.152 81.8834 10.272 81.8994 10.352C81.9154 10.432 81.8514 10.584 81.7074 10.808C81.5794 11.08 81.4274 11.352 81.2514 11.624C81.0914 11.896 80.9394 12.168 80.7954 12.44C80.5394 12.792 80.4914 12.992 80.6514 13.04C80.8114 13.088 81.2594 13.056 81.9954 12.944C82.4594 12.864 82.7954 12.888 83.0034 13.016C83.2114 13.128 83.3314 13.32 83.3634 13.592C83.4114 13.976 83.3714 14.208 83.2434 14.288C83.1154 14.368 82.7474 14.408 82.1394 14.408C81.7554 14.472 81.4274 14.512 81.1554 14.528C80.8834 14.528 80.6834 14.528 80.5554 14.528C80.3474 14.544 80.2114 14.552 80.1474 14.552C80.0834 14.552 79.9874 14.568 79.8594 14.6C79.7314 14.632 79.6354 14.688 79.5714 14.768C79.5234 14.832 79.4674 14.928 79.4034 15.056C79.3394 15.12 79.2434 15.288 79.1154 15.56C78.9874 15.832 78.8274 16.128 78.6354 16.448C78.4114 17.12 78.2194 17.792 78.0594 18.464C77.8994 19.12 77.7714 19.76 77.6754 20.384C77.6114 20.784 77.6194 21.064 77.6994 21.224C77.7794 21.368 77.9874 21.456 78.3234 21.488C78.4994 21.504 78.7794 21.504 79.1634 21.488C79.5634 21.456 79.8754 21.408 80.0994 21.344C80.2754 21.264 80.4594 21.184 80.6514 21.104C80.8434 21.008 81.0194 20.912 81.1794 20.816C81.3234 20.736 81.4674 20.656 81.6114 20.576C81.7554 20.48 81.8274 20.432 81.8274 20.432C81.9074 20.304 81.9954 20.264 82.0914 20.312C82.1874 20.36 82.2674 20.48 82.3314 20.672C82.3314 20.864 82.2914 21.064 82.2114 21.272C82.1314 21.48 81.8354 21.728 81.3234 22.016C80.6034 22.464 79.9394 22.736 79.3314 22.832C78.7394 22.912 78.2354 22.912 77.8194 22.832ZM85.5248 22.64C85.3168 22.64 85.1488 22.6 85.0208 22.52C84.9088 22.44 84.7648 22.328 84.5888 22.184C84.2848 21.864 84.0688 21.56 83.9408 21.272C83.8128 20.968 83.7728 20.68 83.8208 20.408C83.8688 20.28 83.8848 20.16 83.8688 20.048C83.8688 19.92 83.8688 19.856 83.8688 19.856C83.7888 19.776 83.7648 19.728 83.7968 19.712C83.8288 19.68 83.8608 19.632 83.8928 19.568C83.9888 19.568 84.0208 19.48 83.9888 19.304C83.9568 19.176 84.0208 18.896 84.1808 18.464C84.3408 18.032 84.5408 17.624 84.7808 17.24C84.8768 17.08 85.0208 16.872 85.2128 16.616C85.4048 16.344 85.6128 16.08 85.8368 15.824C86.0768 15.552 86.2928 15.336 86.4848 15.176C86.8848 14.84 87.2368 14.592 87.5408 14.432C87.8448 14.272 88.1728 14.152 88.5247 14.072C88.8768 13.992 89.1168 13.952 89.2448 13.952C89.3888 13.952 89.5808 14.08 89.8208 14.336C90.1888 14.496 90.4528 14.688 90.6128 14.912C90.7888 15.136 90.9008 15.464 90.9488 15.896C90.9968 16.376 90.9568 16.928 90.8288 17.552C90.7168 18.16 90.3408 18.92 89.7008 19.832C89.3008 20.408 88.9328 20.84 88.5968 21.128C88.2608 21.4 87.8608 21.672 87.3968 21.944C87.0608 22.168 86.7568 22.336 86.4848 22.448C86.2128 22.544 85.8928 22.608 85.5248 22.64ZM87.8288 20.096C88.2128 19.664 88.5168 19.256 88.7408 18.872C88.9808 18.488 89.2048 18 89.4128 17.408C89.4768 17.232 89.5168 17.016 89.5328 16.76C89.5488 16.488 89.5408 16.24 89.5088 16.016C89.4928 15.776 89.4368 15.64 89.3408 15.608C89.1488 15.496 88.9168 15.464 88.6448 15.512C88.3728 15.544 88.0768 15.696 87.7568 15.968C87.2608 16.384 86.8288 16.904 86.4608 17.528C86.0928 18.136 85.7328 18.832 85.3808 19.616C85.1408 20.192 85.0848 20.656 85.2128 21.008C85.3568 21.344 85.6528 21.464 86.1008 21.368C86.5648 21.256 87.1408 20.832 87.8288 20.096Z" fill="white"/>
</svg>
